<svg width="600" height="120" viewBox="0 0 600 120" fill="none" xmlns="http://www.w3.org/2000/svg">
<g clip-path="url(#clip0_2054_155)">
<path d="M432.969 92.8768H415.295C413.76 92.8768 412.663 91.1438 413.189 89.5407L424.198 52.7998L435.03 89.5407C435.557 91.1438 434.503 92.8768 432.969 92.8768Z" fill="#012B5B"/>
<path d="M432.271 86.0378C430.727 86.9332 429.36 87.9141 427.949 88.639L427.42 88.8948C427.331 88.9516 427.243 88.9943 427.155 89.0228L426.891 89.1507C426.714 89.2076 426.552 89.2786 426.405 89.3639L425.875 89.5344C425.699 89.6198 425.523 89.6624 425.391 89.705L425.127 89.7903C425.038 89.7903 424.95 89.8329 424.861 89.8329C424.774 89.8329 424.685 89.8472 424.597 89.8756L424.553 88.2551C424.817 88.2267 425.068 88.1699 425.303 88.0846C425.699 87.9567 426.096 87.7434 426.449 87.4876C426.802 87.2602 427.126 86.9901 427.42 86.6774C427.596 86.5494 427.728 86.3789 427.86 86.2083C427.993 86.0804 428.125 85.9098 428.257 85.7392C428.787 85.0996 429.228 84.3747 429.625 83.6498C430.037 82.939 430.419 82.1999 430.771 81.4324L430.639 81.3897C429.492 82.7116 428.523 83.9909 427.42 85.0996C426.891 85.654 426.317 86.1657 425.743 86.5068C425.435 86.6774 425.127 86.8053 424.861 86.8906C424.744 86.919 424.626 86.9475 424.509 86.9759V86.4641L424.464 83.8203C424.95 83.7777 425.435 83.5644 425.875 83.3086L426.273 83.0528L426.67 82.7543C426.802 82.669 426.891 82.5411 427.023 82.4132C427.14 82.3278 427.258 82.2284 427.375 82.1146L427.684 81.7308C427.773 81.6171 427.86 81.5034 427.949 81.3897L428.257 81.0059L428.389 80.7927L428.523 80.6222C428.699 80.3663 428.875 80.1105 429.007 79.8119L429.492 79.0017L429.36 78.9591C428.434 79.8545 427.596 80.7501 426.67 81.5176C426.228 81.8588 425.788 82.1999 425.346 82.4132L425.259 82.4558L425.17 82.4984L424.993 82.5837C424.95 82.5837 424.861 82.6263 424.817 82.6263L424.641 82.669C424.612 82.6974 424.567 82.7116 424.509 82.7116H424.421L424.377 79.8972C424.612 79.8404 424.833 79.755 425.038 79.6414C425.391 79.4282 425.743 79.1723 426.009 78.9165C426.581 78.3195 427.067 77.6798 427.464 76.9976L427.375 76.9548C426.67 77.4239 426.096 77.9783 425.479 78.3621C425.17 78.5753 424.906 78.7458 424.597 78.8738C424.539 78.9022 424.464 78.9306 424.377 78.9591L424.332 77.9783V76.5285C424.641 76.4858 424.95 76.3578 425.214 76.1873C425.567 76.0167 425.875 75.7608 426.141 75.4624C426.67 74.908 427.067 74.2684 427.42 73.6288L427.375 73.5861C426.757 74.0979 426.228 74.6522 425.699 75.0786C425.391 75.2919 425.127 75.505 424.861 75.5903C424.656 75.7041 424.464 75.7751 424.288 75.8036L424.2 71.1129C424.288 71.056 424.362 70.9991 424.421 70.9422C424.597 70.7717 424.744 70.6011 424.861 70.4306C425.127 70.0468 425.346 69.6203 425.523 69.194L425.479 69.1512C425.127 69.4924 424.817 69.8762 424.509 70.1747C424.42 70.26 424.332 70.3026 424.288 70.388C424.259 70.4164 424.229 70.4306 424.2 70.4306L424.024 61.0918L423.847 70.6864C423.789 70.6864 423.744 70.6864 423.714 70.6864C423.714 70.6864 423.671 70.6864 423.627 70.6864C423.597 70.6864 423.568 70.6722 423.538 70.6438C423.509 70.6154 423.479 70.6012 423.45 70.6012C423.318 70.5159 423.142 70.3452 423.009 70.2173C422.745 69.9189 422.436 69.5351 422.127 69.194H422.039C422.171 69.6203 422.392 70.0468 422.613 70.4306C422.745 70.6438 422.877 70.8143 423.097 70.985C423.274 71.1555 423.495 71.2408 423.759 71.2408C423.789 71.2408 423.803 71.2408 423.803 71.2408L423.714 75.7608C423.597 75.7324 423.465 75.6898 423.318 75.6329C423.053 75.505 422.745 75.3345 422.479 75.1212C421.95 74.6522 421.421 74.1405 420.847 73.5861H420.804C421.113 74.311 421.51 74.9507 422.039 75.505C422.303 75.8036 422.613 76.0594 422.965 76.2299C423.201 76.3721 423.45 76.4716 423.714 76.5285L423.671 77.9783V79.0444C423.671 79.0444 423.655 79.0444 423.627 79.0444C423.582 79.0444 423.538 79.0017 423.45 79.0017C423.333 78.9732 423.201 78.9306 423.053 78.8738C422.789 78.7886 422.479 78.6179 422.171 78.4047C421.597 77.9783 421.024 77.4666 420.363 76.9548L420.275 76.9976C420.628 77.6798 421.068 78.3621 421.642 78.9165C421.95 79.2149 422.26 79.4708 422.656 79.6414C422.965 79.8119 423.274 79.9398 423.627 79.9398L423.582 82.7543C423.523 82.7259 423.45 82.6974 423.361 82.669C423.303 82.669 423.244 82.6547 423.185 82.6263L423.053 82.5837C422.921 82.5411 422.832 82.4984 422.7 82.4558C422.26 82.2425 421.774 81.9014 421.333 81.5603C420.892 81.1764 420.451 80.7501 420.054 80.3236C419.569 79.8972 419.172 79.4282 418.731 78.9591L418.599 79.0017C419.128 80.1531 419.789 81.2192 420.671 82.1573C421.113 82.5837 421.597 83.0102 422.171 83.3513C422.568 83.6072 423.053 83.7777 423.582 83.8203L423.495 86.4641V86.9332C423.406 86.9332 423.303 86.9048 423.185 86.848C422.877 86.7627 422.613 86.6348 422.303 86.4641C421.729 86.0804 421.157 85.6113 420.583 85.057C419.481 83.9909 418.422 82.7116 417.319 81.3897L417.232 81.4324C417.849 82.9674 418.686 84.4173 419.746 85.7392C420.275 86.3789 420.892 86.9759 421.597 87.445C422.127 87.8288 422.789 88.1272 423.495 88.2551L423.45 89.9609H423.361C423.215 89.9609 423.053 89.9609 422.877 89.9609L422.392 89.8756C422.244 89.8472 422.083 89.8187 421.907 89.7903C421.245 89.6198 420.583 89.3212 419.922 88.9374C418.599 88.2125 417.319 87.189 415.953 86.0378L415.819 86.1231C416.217 86.848 416.701 87.5729 417.232 88.2125C417.761 88.8948 418.378 89.4918 419.083 90.0035C419.789 90.5152 420.539 90.9417 421.377 91.2401C422.039 91.496 422.7 91.6239 423.406 91.6239V92.7753L423.361 93.8414V94.353V94.95L424.685 94.8647V94.353V93.8414L424.641 92.7753L424.597 91.5387C425.259 91.4534 425.92 91.2401 426.538 90.9843L427.111 90.7284L427.684 90.3873L427.949 90.2594L428.213 90.0461L428.787 89.705C428.934 89.5629 429.095 89.435 429.273 89.3212C429.449 89.1507 429.625 89.0654 429.757 88.8948L430.242 88.4684C430.419 88.3404 430.551 88.1699 430.727 88.042C430.992 87.7008 431.301 87.4023 431.566 87.1038L432.403 86.1231L432.271 86.0378Z" fill="#012B5B"/>
<path d="M58.4976 42.9685C64.4618 38.6738 70.923 35.8773 77.8812 34.0796C80.3663 33.4304 82.901 32.9809 85.4856 32.4316C85.585 32.881 85.6843 33.0808 85.7341 33.3305C86.4796 41.9697 85.8335 50.5091 83.0502 58.7987C82.8514 59.4479 82.6525 59.8474 81.7579 59.6977C67.4936 57.4504 54.77 60.8462 43.6368 70.0348C43.4878 70.1846 43.2889 70.2844 43.1399 70.3844C43.0901 70.3844 43.0404 70.3844 42.8914 70.4343C37.5235 65.7901 31.3109 62.3943 24.3527 60.5466C17.4442 58.6989 10.4362 58.4991 3.27918 59.7975C0.0982813 50.9586 -0.498139 41.8699 0.346788 32.5315C10.1877 34.0297 19.2334 37.1258 27.4838 42.9685C30.1678 32.4816 35.5852 23.7424 42.9907 15.9521C46.6686 19.7973 49.7999 23.9422 52.5335 28.4366C55.2173 32.9309 57.106 37.775 58.4976 42.9685Z" fill="#012B5B"/>
<path d="M238.817 38.7238C247.366 38.7238 255.566 38.7238 263.717 38.7238C269.632 38.7238 275.596 38.624 281.51 38.8737C284.144 38.9735 286.878 39.6227 289.363 40.5217C295.228 42.6689 298.706 46.9636 299.602 53.2557C300.595 59.9973 298.558 65.5904 292.991 69.5854C290.854 71.0835 288.468 72.2321 285.983 73.6803C292.892 80.4718 298.558 88.362 305.814 94.2047C300.646 94.2047 295.028 94.3545 289.412 94.1548C286.778 94.055 284.641 92.5568 282.952 90.4095C278.876 85.2159 274.702 80.1222 270.427 75.0286C269.831 74.3295 268.736 73.8301 267.792 73.7801C264.413 73.6304 260.983 73.7302 257.356 73.7302C257.356 77.0261 257.356 80.1222 257.356 83.2184C257.356 85.0162 257.356 86.8139 257.356 88.5617C257.305 90.9587 257.852 93.0062 260.238 94.3046C255.467 94.0049 250.546 95.6529 246.073 92.7066C243.041 90.7091 241.4 88.1622 241.451 84.3171C241.55 71.9824 241.5 59.6978 241.451 47.3631C241.4 44.4666 241.054 41.5204 238.817 38.7238ZM257.504 49.7102V63.0935C261.779 63.0935 265.954 63.1434 270.079 63.0935C272.762 63.0435 275.496 63.0935 278.18 62.744C281.858 62.2445 283.896 59.8475 283.945 56.3519C283.996 52.6065 282.107 50.0098 278.23 49.81C271.372 49.4604 264.512 49.7102 257.504 49.7102Z" fill="#012B5B"/>
<path d="M164.809 94.5038C166.002 92.8559 167.443 91.4576 168.239 89.7098C175.345 74.5787 182.304 59.3976 189.312 44.2165C190.106 42.4687 190.952 40.7208 189.162 38.8232H215.205C215.355 40.4712 215.057 42.1691 215.653 43.4675C222.81 59.1479 230.017 74.8284 237.323 90.409C238.019 91.9072 239.411 93.0557 240.504 94.3541C240.255 94.3541 239.808 94.4539 239.311 94.4539C234.291 94.4539 229.321 94.404 224.301 94.5038C223.158 94.5038 222.512 94.1543 222.065 93.0557C220.823 90.1592 219.48 87.2629 218.039 84.4164C217.741 83.8172 216.797 83.218 216.15 83.218C207.104 83.118 198.109 83.118 189.063 83.218C188.367 83.218 187.373 83.9171 187.075 84.5663C185.634 87.3628 184.391 90.3091 183 93.1555C182.751 93.7049 182.055 94.404 181.559 94.404C175.892 94.5538 170.226 94.5038 164.809 94.5038ZM211.529 70.5836C208.496 64.2415 205.663 58.2491 202.632 51.907C199.599 58.299 196.766 64.2916 193.735 70.5836H211.529Z" fill="#012B5B"/>
<path d="M516.052 94.5038C517.245 92.8559 518.686 91.4576 519.481 89.7098C526.589 74.5787 533.547 59.3976 540.555 44.2165C541.35 42.4687 542.195 40.7208 540.406 38.8232H566.449C566.598 40.4712 566.301 42.1691 566.897 43.4675C574.054 59.1479 581.261 74.8284 588.567 90.409C589.263 91.9072 590.655 93.0557 591.748 94.3541C591.499 94.3541 591.052 94.4539 590.555 94.4539C585.535 94.4539 580.565 94.404 575.545 94.5038C574.402 94.5038 573.756 94.1543 573.309 93.0557C572.065 90.1592 570.724 87.2629 569.283 84.4164C568.984 83.8172 568.039 83.218 567.394 83.218C558.348 83.118 549.352 83.118 540.306 83.218C539.61 83.218 538.617 83.9171 538.318 84.5663C536.877 87.3628 535.635 90.3091 534.243 93.1555C533.994 93.7049 533.298 94.404 532.801 94.404C527.185 94.5538 521.47 94.5038 516.052 94.5038ZM562.822 70.5836C559.789 64.2415 556.956 58.2491 553.925 51.907C550.893 58.299 548.059 64.2916 545.028 70.5836H562.822Z" fill="#012B5B"/>
<path d="M422.462 41.5205C420.425 46.1147 418.337 50.8588 416.249 55.6029C407.551 48.4119 397.711 48.6616 387.621 50.4094C386.478 50.6092 385.335 51.1584 384.391 51.8076C381.855 53.5554 382.005 56.7016 384.888 57.6503C388.267 58.7989 391.896 59.2483 395.474 59.8975C401.139 60.9462 406.855 61.8951 412.521 62.9937C413.863 63.2434 415.106 63.9425 416.348 64.4919C427.581 69.8352 425.99 82.819 419.828 88.3622C415.206 92.5569 409.589 94.1549 403.575 94.854C393.089 96.0526 382.999 93.9052 372.909 91.4083C370.772 90.859 368.586 90.7092 366.2 90.3098C367.343 86.0151 368.586 81.4208 369.779 76.9763C379.818 83.0687 390.653 84.3172 401.935 83.2685C403.427 83.1186 405.017 82.4694 406.309 81.6705C408.943 80.0225 408.894 76.8264 406.11 75.4781C403.973 74.4294 401.538 73.8303 399.152 73.4307C393.138 72.382 387.025 71.6829 381.011 70.6342C378.973 70.2846 376.935 69.4857 374.997 68.6866C363.864 64.2421 364.46 52.4069 370.424 46.0648C374.847 41.3207 380.514 39.2733 386.726 38.4243C396.12 37.1759 405.365 38.6241 414.559 40.4717C417.144 41.0211 419.678 41.171 422.462 41.5205Z" fill="#012B5B"/>
<path d="M300.295 38.874H322.463C320.773 42.0201 320.525 45.2661 320.525 48.6119C320.525 56.8017 320.525 65.0413 320.525 73.2312C320.525 78.2749 322.761 81.0714 327.682 82.27C331.857 83.2686 336.081 83.2187 340.157 81.7206C343.835 80.4222 345.525 77.9254 345.525 74.0302C345.574 65.0913 345.673 56.1525 345.474 47.2135C345.425 44.4171 344.629 41.6705 344.183 38.874H365.604C362.523 41.1211 362.423 44.3172 362.374 47.4133C362.323 54.9539 362.472 62.4946 362.323 70.0351C362.274 73.1813 361.926 76.4272 361.131 79.4235C359.292 86.3149 354.67 90.9591 348.059 93.2562C338.218 96.7019 328.228 96.7519 318.388 93.4061C309.292 90.3099 304.421 83.5683 303.924 74.0801C303.477 65.8404 303.725 57.5507 303.625 49.261C303.625 47.6631 303.625 46.065 303.427 44.5169C303.328 42.4195 302.731 40.3721 300.295 38.874Z" fill="#012B5B"/>
<path d="M456.558 38.874H478.725C477.035 42.0201 476.786 45.2661 476.786 48.6119C476.786 56.8017 476.786 65.0413 476.786 73.2312C476.786 78.2749 479.023 81.0714 483.943 82.27C488.118 83.2686 492.343 83.2187 496.419 81.7206C500.097 80.4222 501.786 77.9254 501.786 74.0302C501.835 65.0913 501.935 56.1525 501.737 47.2135C501.687 44.4171 500.891 41.6705 500.444 38.874H521.866C518.784 41.1211 518.685 44.3172 518.635 47.4133C518.585 54.9539 518.734 62.4946 518.585 70.0351C518.536 73.1813 518.188 76.4272 517.392 79.4235C515.554 86.3149 510.931 90.9591 504.321 93.2562C494.481 96.7019 484.49 96.7519 474.649 93.4061C465.553 90.3099 460.683 83.5683 460.186 74.0801C459.738 65.8404 459.986 57.5507 459.888 49.261C459.888 47.6631 459.888 46.065 459.689 44.5169C459.54 42.4195 458.993 40.3721 456.558 38.874Z" fill="#012B5B"/>
<path d="M162.721 38.8733H182.85C182.105 40.0718 181.309 41.2204 180.713 42.4189C173.507 57.9496 166.3 73.4303 159.094 88.9609C158.298 90.7087 157.553 92.5565 159.391 94.4041H132.652C134.292 92.4066 133.547 90.509 132.652 88.5614C125.346 72.931 118.089 57.3004 110.783 41.6699C110.286 40.6711 109.541 39.7722 108.845 38.7734H129.073C127.334 40.8708 127.931 42.8184 128.874 44.766C134.341 56.3515 139.808 67.9372 145.276 79.5227C145.426 79.8722 145.674 80.1719 146.022 80.7712C148.06 76.5264 149.998 72.4814 151.936 68.4365C155.713 60.3466 159.491 52.2566 163.268 44.2166C164.063 42.5188 164.362 40.771 162.721 38.8733Z" fill="#012B5B"/>
<path d="M27.5335 98.3498C16.0027 95.4035 3.13001 76.9764 4.27315 65.1411C17.1955 62.9439 28.7263 65.9401 39.114 74.3797C32.9509 81.2711 29.1239 89.2112 27.5335 98.3498Z" fill="#012B5B"/>
<path d="M32.8521 100.397C34.3927 100.796 35.8342 101.096 37.3252 101.295C38.2198 101.395 39.0647 101.495 40.0091 101.545L40.5558 101.595C42.8917 101.595 45.2278 101.645 47.5637 101.395C64.164 99.6974 77.9811 86.9632 81.162 70.4338C81.5099 68.7359 81.6093 66.9881 81.8081 65.2903C57.5537 60.3464 35.3868 77.9745 32.8521 100.397Z" fill="#012B5B"/>
<path d="M440.651 80.6719C436.625 80.6719 433.345 83.6181 433.345 87.2636C433.345 90.9091 436.625 93.8554 440.651 93.8554C444.677 93.8554 447.958 90.9091 447.958 87.2636C447.958 83.6681 444.677 80.6719 440.651 80.6719Z" fill="#012B5B"/>
<path d="M471.342 91.4606H441.592C439.008 91.4606 437.162 88.5434 438.048 85.845L456.577 24L474.811 85.845C475.698 88.5434 473.926 91.4606 471.342 91.4606Z" fill="#012B5B"/>
<path d="M470.167 79.9479C467.569 81.4552 465.268 83.1062 462.892 84.3264L462.001 84.757C461.852 84.8528 461.704 84.9245 461.556 84.9724L461.11 85.1877C460.813 85.2835 460.541 85.4031 460.294 85.5466L459.402 85.8338C459.106 85.9773 458.808 86.0491 458.586 86.1208L458.141 86.2645C457.992 86.2645 457.843 86.3362 457.694 86.3362C457.547 86.3362 457.398 86.3601 457.249 86.408L457.175 83.6804C457.621 83.6325 458.041 83.5369 458.437 83.3932C459.106 83.1779 459.774 82.819 460.368 82.3884C460.962 82.0056 461.506 81.551 462.001 81.0245C462.298 80.8093 462.521 80.5221 462.743 80.235C462.966 80.0197 463.189 79.7325 463.411 79.4455C464.303 78.3687 465.044 77.1484 465.713 75.9283C466.406 74.7319 467.05 73.4877 467.644 72.1958L467.42 72.1239C465.491 74.3491 463.856 76.5025 462.001 78.3687C461.11 79.3018 460.145 80.1632 459.18 80.7374C458.66 81.0246 458.141 81.24 457.694 81.3835C457.496 81.4314 457.298 81.4792 457.1 81.527V80.6656L457.027 76.2154C457.843 76.1435 458.66 75.7846 459.402 75.3541L460.07 74.9234L460.739 74.4209C460.962 74.2773 461.11 74.062 461.333 73.8466C461.531 73.7031 461.729 73.5356 461.927 73.3442L462.446 72.6982C462.595 72.5067 462.743 72.3153 462.892 72.1239L463.411 71.478L463.634 71.119L463.856 70.832C464.154 70.4013 464.45 69.9706 464.674 69.4681L465.491 68.1043L465.268 68.0325C463.709 69.5399 462.298 71.0473 460.739 72.3393C459.996 72.9135 459.254 73.4877 458.512 73.8466L458.363 73.9184L458.214 73.9903L457.918 74.1338C457.843 74.1338 457.694 74.2055 457.621 74.2055L457.324 74.2773C457.274 74.3252 457.2 74.3491 457.1 74.3491H456.953L456.878 69.6117C457.274 69.5159 457.645 69.3724 457.992 69.181C458.586 68.8221 459.18 68.3914 459.625 67.9608C460.59 66.9559 461.407 65.8792 462.076 64.7307L461.927 64.659C460.739 65.4486 459.774 66.3817 458.735 67.0276C458.214 67.3866 457.769 67.6737 457.249 67.889C457.151 67.9369 457.027 67.9846 456.878 68.0325L456.804 66.3817V63.9411C457.324 63.8694 457.843 63.6539 458.288 63.3669C458.882 63.0798 459.402 62.6491 459.848 62.1466C460.739 61.2135 461.407 60.1369 462.001 59.0601L461.927 58.9883C460.888 59.8497 459.996 60.7828 459.106 61.5007C458.586 61.8596 458.141 62.2184 457.694 62.362C457.349 62.5534 457.027 62.6731 456.73 62.7208L456.581 54.8252C456.73 54.7294 456.853 54.6338 456.953 54.538C457.249 54.251 457.496 53.9638 457.694 53.6767C458.141 53.0307 458.512 52.3129 458.808 51.5952L458.735 51.5234C458.141 52.0976 457.621 52.7436 457.1 53.2461C456.953 53.3896 456.804 53.4614 456.73 53.6049C456.68 53.6528 456.631 53.6767 456.581 53.6767L456.284 37.957L455.987 54.1073C455.888 54.1073 455.814 54.1073 455.765 54.1073C455.765 54.1073 455.69 54.1073 455.616 54.1073C455.567 54.1073 455.518 54.0835 455.467 54.0356C455.418 53.9877 455.369 53.9638 455.32 53.9638C455.096 53.8203 454.8 53.5332 454.577 53.3179C454.132 52.8153 453.612 52.1694 453.092 51.5952H452.944C453.166 52.3129 453.538 53.0307 453.908 53.6767C454.132 54.0356 454.354 54.3228 454.726 54.6099C455.022 54.8969 455.394 55.0406 455.839 55.0406C455.888 55.0406 455.914 55.0406 455.914 55.0406L455.765 62.6491C455.567 62.6012 455.344 62.5294 455.096 62.4338C454.651 62.2184 454.132 61.9314 453.686 61.5724C452.795 60.7828 451.904 59.9215 450.938 58.9883H450.865C451.385 60.2086 452.052 61.2853 452.944 62.2184C453.389 62.7209 453.908 63.1515 454.502 63.4387C454.898 63.6779 455.32 63.8455 455.765 63.9411L455.69 66.3817V68.1762C455.69 68.1762 455.665 68.1762 455.616 68.1762C455.542 68.1762 455.467 68.1043 455.32 68.1043C455.122 68.0565 454.898 67.9848 454.651 67.889C454.206 67.7455 453.686 67.4583 453.166 67.0994C452.201 66.3817 451.236 65.5203 450.122 64.659L449.974 64.7307C450.568 65.8792 451.31 67.0276 452.275 67.9608C452.795 68.4632 453.314 68.8939 453.983 69.181C454.502 69.4681 455.022 69.6835 455.616 69.6835L455.542 74.4209C455.443 74.3731 455.32 74.3252 455.171 74.2773C455.071 74.2773 454.973 74.2534 454.873 74.2055L454.651 74.1338C454.428 74.062 454.279 73.9903 454.057 73.9184C453.314 73.5596 452.498 72.9853 451.756 72.4111C451.013 71.7651 450.271 71.0473 449.603 70.3294C448.786 69.6117 448.117 68.8221 447.376 68.0325L447.152 68.1043C448.044 70.0424 449.158 71.8369 450.642 73.4159C451.385 74.1338 452.201 74.8515 453.166 75.4258C453.834 75.8565 454.651 76.1435 455.542 76.2154L455.394 80.6656V81.4552C455.245 81.4552 455.071 81.4074 454.873 81.3117C454.354 81.1681 453.908 80.9528 453.389 80.6656C452.424 80.0197 451.459 79.2301 450.493 78.297C448.638 76.5025 446.856 74.3491 445 72.1239L444.851 72.1958C445.89 74.7797 447.301 77.2203 449.083 79.4455C449.974 80.5221 451.013 81.527 452.201 82.3166C453.092 82.9625 454.206 83.4651 455.394 83.6804L455.32 86.5515H455.171C454.924 86.5515 454.651 86.5515 454.354 86.5515L453.538 86.408C453.29 86.3601 453.018 86.3123 452.72 86.2645C451.607 85.9773 450.493 85.4749 449.38 84.8289C447.152 83.6086 445 81.8859 442.698 79.9479L442.476 80.0914C443.143 81.3117 443.96 82.5319 444.851 83.6086C445.742 84.757 446.782 85.762 447.97 86.6234C449.158 87.4847 450.419 88.2025 451.83 88.7049C452.944 89.1356 454.057 89.351 455.245 89.351V91.289L455.171 93.0835V93.9448V94.9497L457.398 94.8062V93.9448V93.0835L457.324 91.289L457.249 89.2073C458.363 89.0638 459.476 88.7049 460.516 88.2742L461.482 87.8436L462.446 87.2693L462.892 87.0539L463.337 86.6951L464.303 86.1208C464.55 85.8817 464.822 85.6663 465.119 85.4749C465.416 85.1877 465.713 85.0442 465.936 84.757L466.752 84.0393C467.05 83.8239 467.272 83.5369 467.569 83.3215C468.014 82.7473 468.534 82.2448 468.979 81.7424L470.39 80.0914L470.167 79.9479Z" fill="#012B5B"/>
<path d="M433.53 57.1636L447.421 64.4044L457.056 47.8862L441.47 39.7598L433.53 57.1636Z" fill="#012B5B"/>
<path d="M441.469 39.7594C440.609 41.4047 443.403 44.5583 447.707 46.804C452.01 49.0496 456.194 49.531 457.051 47.8858C457.907 46.2406 455.117 43.0869 450.813 40.8412C446.515 38.6006 442.326 38.1142 441.469 39.7594Z" fill="#012B5B"/>
<path d="M430.407 51.7824C428.51 57.0313 432.474 63.2719 439.261 65.7225C446.049 68.1731 453.085 65.9024 454.982 60.6486C456.879 55.3997 452.911 49.1591 446.129 46.7084C439.34 44.2579 432.305 46.5285 430.412 51.7824H430.407Z" fill="#012B5B"/>
<path d="M430.334 61.1427C430.322 66.995 435.054 71.751 440.906 71.7632C446.758 71.7754 451.515 67.0393 451.527 61.187C451.538 55.3347 446.807 50.5836 440.951 50.5713C435.094 50.5591 430.346 55.2904 430.334 61.1427Z" fill="#012B5B"/>
<path d="M430.334 61.1426L451.526 61.1869L451.501 73.5345L430.309 73.4902L430.334 61.1426Z" fill="#012B5B"/>
<path d="M426.289 80.0842C426.272 88.1486 432.793 94.7016 440.863 94.7184C448.932 94.7353 455.48 88.2145 455.497 80.1451C455.514 72.0757 448.988 65.5277 440.924 65.5108C432.859 65.494 426.306 72.0196 426.289 80.0842Z" fill="url(#paint0_linear_2054_155)"/>
<path d="M444.241 59.0664C444.122 59.8068 444.627 60.4998 445.368 60.6182C446.108 60.7368 446.807 60.2315 446.925 59.4911C447.043 58.7506 446.538 58.0528 445.797 57.9391C445.057 57.8206 444.36 58.3259 444.241 59.0664Z" fill="#012B5B"/>
<path d="M439.101 61.5557C439.435 62.2289 440.248 62.4986 440.921 62.1686" stroke="#012B5B" stroke-width="2" stroke-linecap="round" stroke-linejoin="round"/>
<path d="M439.547 76.4042C439.428 77.1446 439.933 77.8425 440.673 77.9561C441.414 78.0746 442.112 77.5693 442.23 76.8289C442.349 76.0885 441.843 75.3905 441.103 75.277C440.363 75.1585 439.664 75.6638 439.551 76.4042H439.547Z" fill="#012B5B"/>
<path d="M439.554 72.6474C439.437 73.3878 439.942 74.0857 440.682 74.1994C441.422 74.3178 442.12 73.8125 442.239 73.0721C442.357 72.3317 441.852 71.6338 441.112 71.5201C440.371 71.4017 439.673 71.907 439.559 72.6474H439.554Z" fill="#012B5B"/>
<path d="M434.855 57.5703C434.736 58.3107 435.241 59.0086 435.982 59.1221C436.722 59.2407 437.42 58.7354 437.533 57.995C437.652 57.2544 437.147 56.5566 436.406 56.443C435.666 56.3246 434.972 56.8299 434.855 57.5703Z" fill="#012B5B"/>
<path d="M440.344 58.581C440.344 58.581 431.871 58.6022 426.423 58.5518C425.565 58.5452 425.319 59.5387 426.42 59.6629L440.231 61.1925C440.231 61.1925 441.739 59.8898 440.344 58.576V58.581Z" fill="#012B5B"/>
<path d="M429.638 65.4873L452.185 65.5345L452.173 70.8652L429.627 70.8182L429.638 65.4873Z" fill="#012B5B"/>
<path d="M433.507 68.1611L438.837 68.1723L438.81 81.2899L433.479 81.2787L433.507 68.1611Z" fill="#012B5B"/>
<path d="M480.932 95.3876C480.44 96.1877 479.4 96 477 96C477 96 474.706 96.0257 474.6 96H474H473.4C473.4 96 472.751 96.0215 472.8 96C472.8 96 472.8 96 473.003 96.0091C472.896 95.9899 472.906 96.0257 472.8 96H472.2H471.6H466.8L461.4 96.3293H456.964H452.4L442.2 96.6C441.373 96.4463 434.996 96.9139 434.4 96.6H427.2H420C419.212 96.7025 414.6 96.6 414.6 96.6C412.916 96.2797 407.016 96.3293 407.016 96.3293C406.256 96.3998 402.438 96.4766 401.658 96.3293C401.658 96.3293 396.325 96.2029 397.2 94.8C397.71 93.9736 400.331 91.4798 401.706 91.2236C402.544 91.0636 403.466 91.0379 404.381 91.1596C404.4 91.1275 404.41 91.0955 404.429 91.0699C405.698 89.0008 409.747 87.8989 413.45 88.6164C414.095 88.7381 414.691 88.911 415.22 89.1224C416.394 87.5146 419.616 86.6818 422.588 87.2519C423.55 87.4376 424.368 87.7451 425.003 88.1359C426.868 86.0411 431.254 84.9968 435.313 85.7784C436.111 85.9322 436.832 86.1436 437.486 86.4062C437.496 86.3807 437.506 86.355 437.525 86.3293C438.631 84.5228 442.162 83.5684 445.393 84.1897C446.076 84.3179 446.692 84.5165 447.23 84.7535C448.433 84.5485 449.75 84.542 451.03 84.7919C452.704 85.1122 453.964 85.7977 454.646 86.6305C455.204 86.6497 455.771 86.7073 456.329 86.8163C456.944 86.9316 457.502 87.0982 457.993 87.3031C459.6 86.2909 462.206 85.8617 464.64 86.3293C467.381 86.8547 469.026 88.3474 468.785 89.8912C469.439 89.8912 470.102 89.9552 470.756 90.0769C472.459 90.4037 473.738 91.1148 474.402 91.9668C474.412 91.9795 474.421 91.9924 474.431 92.0052C475.508 91.749 476.73 91.7041 477.923 91.9348C480.462 92.4216 481.808 93.9655 480.932 95.3876Z" fill="url(#paint1_linear_2054_155)"/>
</g>
<defs>
<linearGradient id="paint0_linear_2054_155" x1="442.628" y1="96.6791" x2="442.71" y2="57.5602" gradientUnits="userSpaceOnUse">
<stop stop-color="#B4DAFF"/>
<stop offset="1" stop-color="white"/>
</linearGradient>
<linearGradient id="paint1_linear_2054_155" x1="434.782" y1="104.486" x2="434.782" y2="78.7711" gradientUnits="userSpaceOnUse">
<stop stop-color="#B4DAFF"/>
<stop offset="1" stop-color="white"/>
</linearGradient>
<clipPath id="clip0_2054_155">
<rect width="600" height="120" fill="white"/>
</clipPath>
</defs>
</svg>
