<svg width="187" height="70" viewBox="0 0 187 70" fill="none" xmlns="http://www.w3.org/2000/svg">
<path d="M47.7334 0.494141H64.9181V67.2792H47.7334V58.2638H16.9913L34.2404 41.9263H47.7334V24.1858L0 68.8275V45.2648L47.7334 0.494141Z" fill="#012B5B"/>
<path d="M47.7334 0.494141H64.9181V67.2792H47.7334V58.2638H16.9913L34.2404 41.9263H47.7334V24.1858L0 68.8275V45.2648L47.7334 0.494141Z" fill="url(#paint0_linear_2054_116)"/>
<path d="M83.7145 18.7506H69.6089V1.25195H131.222L112.7 18.7506H102.221V68.037H83.7145V18.7506Z" fill="#012B5B"/>
<path d="M83.7145 18.7506H69.6089V1.25195H131.222L112.7 18.7506H102.221V68.037H83.7145V18.7506Z" fill="url(#paint1_linear_2054_116)"/>
<path d="M169.944 17.3796H135.526V51.9738H154.162C154.969 52.0006 155.765 51.7873 156.451 51.361C157.077 50.9706 157.58 50.4116 157.902 49.7481C158.254 48.9908 158.43 48.164 158.418 47.329C158.446 46.1523 158.045 45.0055 157.289 44.1035C156.893 43.6736 156.408 43.3355 155.868 43.1126C155.328 42.8898 154.746 42.7876 154.162 42.8131H139.234V26.637H157.531C159.942 26.6118 162.33 27.1126 164.528 28.1046C166.713 29.0633 168.669 30.4761 170.267 32.2495C171.95 34.1263 173.244 36.3191 174.072 38.7006C175.038 41.4056 175.514 44.2625 175.474 47.1355C175.466 49.8205 174.992 52.4838 174.072 55.0058C173.177 57.4303 171.874 59.6831 170.218 61.6665C168.652 63.5851 166.717 65.17 164.528 66.3275C162.4 67.4486 160.033 68.0405 157.628 68.0531H118.455V17.3796L135.526 1.25195H187L169.944 17.3796Z" fill="#012B5B"/>
<path d="M169.944 17.3796H135.526V51.9738H154.162C154.969 52.0006 155.765 51.7873 156.451 51.361C157.077 50.9706 157.58 50.4116 157.902 49.7481C158.254 48.9908 158.43 48.164 158.418 47.329C158.446 46.1523 158.045 45.0055 157.289 44.1035C156.893 43.6736 156.408 43.3355 155.868 43.1126C155.328 42.8898 154.746 42.7876 154.162 42.8131H139.234V26.637H157.531C159.942 26.6118 162.33 27.1126 164.528 28.1046C166.713 29.0633 168.669 30.4761 170.267 32.2495C171.95 34.1263 173.244 36.3191 174.072 38.7006C175.038 41.4056 175.514 44.2625 175.474 47.1355C175.466 49.8205 174.992 52.4838 174.072 55.0058C173.177 57.4303 171.874 59.6831 170.218 61.6665C168.652 63.5851 166.717 65.17 164.528 66.3275C162.4 67.4486 160.033 68.0405 157.628 68.0531H118.455V17.3796L135.526 1.25195H187L169.944 17.3796Z" fill="url(#paint2_linear_2054_116)"/>
<defs>
<linearGradient id="paint0_linear_2054_116" x1="93.5" y1="0.494141" x2="93.5" y2="68.8275" gradientUnits="userSpaceOnUse">
<stop stop-color="#EF3E33"/>
<stop offset="1" stop-color="#A5251D"/>
</linearGradient>
<linearGradient id="paint1_linear_2054_116" x1="93.4998" y1="0.493948" x2="93.4998" y2="68.8273" gradientUnits="userSpaceOnUse">
<stop stop-color="#EF3E33"/>
<stop offset="1" stop-color="#A5251D"/>
</linearGradient>
<linearGradient id="paint2_linear_2054_116" x1="93.4998" y1="0.493948" x2="93.4998" y2="68.8273" gradientUnits="userSpaceOnUse">
<stop stop-color="#EF3E33"/>
<stop offset="1" stop-color="#A5251D"/>
</linearGradient>
</defs>
</svg>
