<svg width="80" height="80" viewBox="0 0 80 80" fill="none" xmlns="http://www.w3.org/2000/svg">
<path d="M39.4299 38.5363C44.7241 38.5363 49.3079 36.6375 53.0542 32.8912C56.7993 29.1455 58.6987 24.5623 58.6987 19.2675C58.6987 13.9746 56.7999 9.39085 53.0536 5.64391C49.3073 1.8988 44.7235 0 39.4299 0C34.1351 0 29.552 1.8988 25.8063 5.64452C22.0605 9.39024 20.1611 13.974 20.1611 19.2675C20.1611 24.5623 22.0605 29.1461 25.8063 32.8918C29.5532 36.6369 34.137 38.5363 39.4299 38.5363ZM29.1217 8.95933C31.9958 6.08519 35.3674 4.6881 39.4299 4.6881C43.4918 4.6881 46.864 6.08519 49.7388 8.95933C52.6129 11.8341 54.0106 15.2063 54.0106 19.2675C54.0106 23.33 52.6129 26.7016 49.7388 29.5764C46.864 32.4511 43.4918 33.8482 39.4299 33.8482C35.3687 33.8482 31.9971 32.4505 29.1217 29.5764C26.2469 26.7022 24.8492 23.33 24.8492 19.2675C24.8492 15.2063 26.2469 11.8341 29.1217 8.95933Z" fill="#012B5B"/>
<path d="M73.1451 61.5159C73.0371 59.9571 72.8186 58.2567 72.4969 56.461C72.1722 54.6519 71.7542 52.9417 71.2537 51.3786C70.7361 49.763 70.0336 48.1676 69.1638 46.6387C68.2623 45.0517 67.2028 43.6699 66.0138 42.5328C64.7705 41.3433 63.2483 40.3868 61.488 39.6892C59.7339 38.9952 57.7899 38.6437 55.7104 38.6437C54.8938 38.6437 54.104 38.9788 52.5787 39.9718C51.64 40.584 50.542 41.292 49.3164 42.0751C48.2684 42.7428 46.8488 43.3684 45.0952 43.9348C43.3844 44.4884 41.6473 44.7692 39.9323 44.7692C38.2184 44.7692 36.4813 44.4884 34.7693 43.9348C33.0176 43.369 31.5973 42.7434 30.5511 42.0757C29.3372 41.2999 28.2385 40.5919 27.2858 39.9712C25.7617 38.9781 24.9719 38.6431 24.1553 38.6431C22.0752 38.6431 20.1318 38.9952 18.3783 39.6898C16.6193 40.3862 15.0964 41.3426 13.8519 42.5334C12.663 43.6711 11.6034 45.0524 10.7025 46.6387C9.83398 48.1676 9.13086 49.7624 8.61328 51.3792C8.1134 52.9424 7.69531 54.6519 7.37061 56.461C7.04834 58.2542 6.83044 59.9553 6.72241 61.5178C6.61621 63.0455 6.5625 64.6354 6.5625 66.2419C6.5625 70.4179 7.89001 73.7986 10.5078 76.2919C13.0933 78.7522 16.5137 79.9998 20.6744 79.9998H59.1949C63.3545 79.9998 66.7749 78.7522 69.361 76.2919C71.9794 73.8005 73.3069 70.4185 73.3069 66.2413C73.3063 64.6293 73.252 63.0394 73.1451 61.5159ZM66.1285 72.8953C64.4202 74.5213 62.1521 75.3117 59.1943 75.3117H20.6744C17.7161 75.3117 15.448 74.5213 13.7402 72.8959C12.0648 71.3011 11.2506 69.124 11.2506 66.2419C11.2506 64.7429 11.3 63.2628 11.3989 61.8419C11.4954 60.4478 11.6925 58.9165 11.9849 57.2893C12.2736 55.6822 12.641 54.174 13.078 52.8087C13.4973 51.4995 14.0692 50.2031 14.7784 48.9543C15.4553 47.7641 16.2341 46.743 17.0935 45.9203C17.8973 45.1506 18.9105 44.5207 20.1044 44.0483C21.2085 43.6113 22.4493 43.3721 23.7964 43.3361C23.9606 43.4233 24.2529 43.59 24.7266 43.8988C25.6903 44.5268 26.8011 45.2434 28.0292 46.0277C29.4135 46.9103 31.1969 47.7074 33.3276 48.3952C35.506 49.0996 37.7277 49.4573 39.9329 49.4573C42.1381 49.4573 44.3604 49.0996 46.5375 48.3959C48.67 47.7068 50.4529 46.9103 51.839 46.0265C53.0957 45.2233 54.1754 44.5275 55.1392 43.8988C55.6128 43.5906 55.9052 43.4233 56.0693 43.3361C57.417 43.3721 58.6578 43.6113 59.7626 44.0483C60.9558 44.5207 61.969 45.1512 62.7728 45.9203C63.6322 46.7424 64.411 47.7635 65.0879 48.9549C65.7977 50.2031 66.3702 51.5001 66.7889 52.8081C67.2266 54.1753 67.5946 55.6828 67.8827 57.2887C68.1744 58.9189 68.3722 60.4509 68.4686 61.8425V61.8437C68.5681 63.2591 68.6182 64.7386 68.6188 66.2419C68.6182 69.1246 67.804 71.3011 66.1285 72.8953Z" fill="#012B5B"/>
</svg>
