<?xml version="1.0" encoding="utf-8"?><svg viewBox="0 0 64 64" xmlns="http://www.w3.org/2000/svg" xmlns:xlink="http://www.w3.org/1999/xlink"><style>:root>svg{display:none}:root>svg:target{display:block}</style><svg fill="none" viewBox="0 0 24 24" id="arrow" xmlns="http://www.w3.org/2000/svg"><path d="m15 19-7-7 7-7"/></svg><svg fill="none" viewBox="0 0 24 24" id="check" xmlns="http://www.w3.org/2000/svg"><path d="m4 12 4.95 4.95L19.557 6.343" stroke="#fff" stroke-width="2" stroke-linecap="round" stroke-linejoin="round"/></svg><svg fill="none" viewBox="0 0 24 24" id="close" xmlns="http://www.w3.org/2000/svg"><path d="M18 18 6 6m12 0L6 18" stroke="#012B5B" stroke-width="2" stroke-linecap="round" stroke-linejoin="round"/></svg><svg viewBox="0 0 37 37" id="eye" xmlns="http://www.w3.org/2000/svg"><path fill-rule="evenodd" clip-rule="evenodd" d="M4.959 18.5c.89 1.228 2.716 3.543 5.119 5.557 2.492 2.09 5.41 3.693 8.422 3.693 3.013 0 5.931-1.604 8.423-3.693 2.404-2.014 4.229-4.329 5.12-5.557-.891-1.228-2.716-3.542-5.12-5.557-2.492-2.09-5.41-3.693-8.422-3.693-3.013 0-5.931 1.604-8.423 3.693-2.403 2.015-4.229 4.329-5.12 5.557Zm3.138-7.92c2.716-2.277 6.328-4.413 10.403-4.413 4.076 0 7.688 2.136 10.404 4.413 2.742 2.3 4.771 4.91 5.709 6.214a2.91 2.91 0 0 1 0 3.413c-.938 1.304-2.967 3.914-5.709 6.213-2.716 2.277-6.328 4.413-10.404 4.413-4.075 0-7.687-2.136-10.403-4.413-2.742-2.299-4.771-4.91-5.709-6.213a2.91 2.91 0 0 1 0-3.413c.938-1.305 2.967-3.915 5.709-6.214Z"/><path fill-rule="evenodd" clip-rule="evenodd" d="M18.5 21.583a3.083 3.083 0 1 0 0-6.166 3.083 3.083 0 0 0 0 6.166Zm0 3.084a6.167 6.167 0 1 0 0-12.334 6.167 6.167 0 0 0 0 12.334Z"/></svg><svg fill="none" viewBox="0 0 24 24" id="filter" xmlns="http://www.w3.org/2000/svg"><path d="M14 15h7M3 15h2m0 0a2.5 2.5 0 1 0 5 0 2.5 2.5 0 0 0-5 0Zm15-6h1M3 9h7m6.5 2.5a2.5 2.5 0 1 1 0-5 2.5 2.5 0 0 1 0 5Z" stroke="#fff" stroke-width="2" stroke-linecap="round" stroke-linejoin="round"/></svg><svg viewBox="0 0 64 64" id="info" xmlns="http://www.w3.org/2000/svg"><path fill-rule="evenodd" clip-rule="evenodd" d="M32 53.333c11.782 0 21.334-9.551 21.334-21.333 0-11.782-9.552-21.334-21.334-21.334S10.667 20.218 10.667 32 20.218 53.333 32 53.333Zm0 5.333c14.728 0 26.667-11.939 26.667-26.666 0-14.728-11.94-26.667-26.667-26.667C17.273 5.333 5.334 17.273 5.334 32c0 14.727 11.939 26.666 26.666 26.666Z"/><path d="M29.334 32a2.667 2.667 0 1 1 5.333 0v10.666a2.667 2.667 0 1 1-5.334 0V32ZM34.667 21.333a2.667 2.667 0 1 1-5.334 0 2.667 2.667 0 0 1 5.334 0Z"/></svg><svg viewBox="0 0 42 42" id="location" xmlns="http://www.w3.org/2000/svg"><path fill-rule="evenodd" clip-rule="evenodd" d="M21 7a8.75 8.75 0 0 0-8.75 8.75c0 4.879 2.82 12.018 8.75 18.472 5.93-6.454 8.75-13.593 8.75-18.472A8.75 8.75 0 0 0 21 7ZM8.75 15.75C8.75 8.985 14.235 3.5 21 3.5s12.25 5.485 12.25 12.25c0 6.391-3.788 15.013-11.013 22.237a1.75 1.75 0 0 1-2.474 0C12.538 30.763 8.75 22.141 8.75 15.75Z"/><path fill-rule="evenodd" clip-rule="evenodd" d="M21 17.5a1.75 1.75 0 1 0 0-3.5 1.75 1.75 0 0 0 0 3.5Zm0 3.5a5.25 5.25 0 1 0 0-10.5A5.25 5.25 0 0 0 21 21Z"/></svg><svg viewBox="0 0 46 46" id="search" xmlns="http://www.w3.org/2000/svg"><g clip-path="url(#ha)"><path d="M45.564 43.497 33.688 31.811c3.11-3.38 5.02-7.848 5.02-12.765C38.709 8.526 30.044 0 19.355 0 8.664 0 0 8.526 0 19.046 0 29.565 8.665 38.09 19.354 38.09c4.618 0 8.854-1.597 12.181-4.253l11.923 11.733c.58.572 1.524.572 2.105 0a1.45 1.45 0 0 0 .001-2.074Zm-26.21-8.336c-9.044 0-16.376-7.215-16.376-16.115 0-8.9 7.332-16.116 16.376-16.116s16.375 7.215 16.375 16.116c0 8.9-7.331 16.115-16.375 16.115Z"/></g><defs><clipPath id="ha"><path fill="#fff" d="M0 0h46v46H0z"/></clipPath></defs></svg></svg>