<?xml version="1.0" encoding="utf-8"?><svg viewBox="0 0 144 144" xmlns="http://www.w3.org/2000/svg" xmlns:xlink="http://www.w3.org/1999/xlink"><style>:root>svg{display:none}:root>svg:target{display:block}</style><svg fill="none" viewBox="0 0 24 24" id="arrow" xmlns="http://www.w3.org/2000/svg"><path d="m15 19-7-7 7-7"/></svg><svg fill="none" viewBox="0 0 24 24" id="check" xmlns="http://www.w3.org/2000/svg"><path d="m4 12 4.95 4.95L19.557 6.343" stroke="#fff" stroke-width="2" stroke-linecap="round" stroke-linejoin="round"/></svg><svg fill="none" viewBox="0 0 24 24" id="close" xmlns="http://www.w3.org/2000/svg"><path d="M18 18 6 6m12 0L6 18" stroke="#012B5B" stroke-width="2" stroke-linecap="round" stroke-linejoin="round"/></svg><svg viewBox="0 0 37 37" id="eye" xmlns="http://www.w3.org/2000/svg"><path fill-rule="evenodd" clip-rule="evenodd" d="M4.959 18.5c.89 1.228 2.716 3.543 5.119 5.557 2.492 2.09 5.41 3.693 8.422 3.693 3.013 0 5.931-1.604 8.423-3.693 2.404-2.014 4.229-4.329 5.12-5.557-.891-1.228-2.716-3.542-5.12-5.557-2.492-2.09-5.41-3.693-8.422-3.693-3.013 0-5.931 1.604-8.423 3.693-2.403 2.015-4.229 4.329-5.12 5.557Zm3.138-7.92c2.716-2.277 6.328-4.413 10.403-4.413 4.076 0 7.688 2.136 10.404 4.413 2.742 2.3 4.771 4.91 5.709 6.214a2.91 2.91 0 0 1 0 3.413c-.938 1.304-2.967 3.914-5.709 6.213-2.716 2.277-6.328 4.413-10.404 4.413-4.075 0-7.687-2.136-10.403-4.413-2.742-2.299-4.771-4.91-5.709-6.213a2.91 2.91 0 0 1 0-3.413c.938-1.305 2.967-3.915 5.709-6.214Z"/><path fill-rule="evenodd" clip-rule="evenodd" d="M18.5 21.583a3.083 3.083 0 1 0 0-6.166 3.083 3.083 0 0 0 0 6.166Zm0 3.084a6.167 6.167 0 1 0 0-12.334 6.167 6.167 0 0 0 0 12.334Z"/></svg><svg fill="none" viewBox="0 0 60 60" id="facebook" xmlns="http://www.w3.org/2000/svg"><rect width="60" height="60" rx="30" fill="#012B5B"/><path d="M32.486 30.547h5.583l.877-5.706h-6.462v-3.119c0-2.37.77-4.473 2.974-4.473H39v-4.98c-.622-.084-1.938-.269-4.425-.269-5.193 0-8.237 2.759-8.237 9.045v3.796H21v5.706h5.338v15.684c1.057.16 2.128.269 3.227.269.994 0 1.963-.091 2.92-.222v-15.73Z" fill="#fff"/></svg><svg fill="none" viewBox="0 0 24 24" id="filter" xmlns="http://www.w3.org/2000/svg"><path d="M14 15h7M3 15h2m0 0a2.5 2.5 0 1 0 5 0 2.5 2.5 0 0 0-5 0Zm15-6h1M3 9h7m6.5 2.5a2.5 2.5 0 1 1 0-5 2.5 2.5 0 0 1 0 5Z" stroke="#fff" stroke-width="2" stroke-linecap="round" stroke-linejoin="round"/></svg><svg viewBox="0 0 64 64" id="info" xmlns="http://www.w3.org/2000/svg"><path fill-rule="evenodd" clip-rule="evenodd" d="M32 53.333c11.782 0 21.334-9.551 21.334-21.333 0-11.782-9.552-21.334-21.334-21.334S10.667 20.218 10.667 32 20.218 53.333 32 53.333Zm0 5.333c14.728 0 26.667-11.939 26.667-26.666 0-14.728-11.94-26.667-26.667-26.667C17.273 5.333 5.334 17.273 5.334 32c0 14.727 11.939 26.666 26.666 26.666Z"/><path d="M29.334 32a2.667 2.667 0 1 1 5.333 0v10.666a2.667 2.667 0 1 1-5.334 0V32ZM34.667 21.333a2.667 2.667 0 1 1-5.334 0 2.667 2.667 0 0 1 5.334 0Z"/></svg><svg fill="none" viewBox="0 0 60 60" id="instagram" xmlns="http://www.w3.org/2000/svg"><rect width="60" height="60" rx="30" fill="#012B5B"/><path d="M30 17.71h6.145c1.445 0 2.168.362 2.71.543.723.361 1.266.542 1.808 1.084.542.543.903 1.085 1.084 1.808.18.542.361 1.265.542 2.71v12.29c0 1.445-.361 2.168-.542 2.71-.361.723-.542 1.266-1.084 1.808s-1.085.903-1.808 1.084c-.542.18-1.265.361-2.71.542h-12.29c-1.445 0-2.168-.361-2.71-.542-.723-.361-1.265-.542-1.808-1.084-.542-.542-.903-1.085-1.084-1.808-.18-.542-.361-1.265-.542-2.71v-12.29c0-1.445.361-2.168.542-2.71.361-.723.542-1.265 1.084-1.808.543-.542 1.085-.903 1.808-1.084.542-.18 1.265-.361 2.71-.542H30ZM30 15h-6.145c-1.626 0-2.71.361-3.614.723-.904.361-1.807.903-2.71 1.807-.904.904-1.266 1.627-1.808 2.711-.362.904-.542 1.988-.723 3.614v12.29c0 1.626.361 2.71.723 3.614.361.904.903 1.807 1.807 2.71.904.904 1.627 1.266 2.711 1.808.904.362 1.988.542 3.614.723h12.29c1.626 0 2.71-.361 3.614-.723.904-.361 1.807-.904 2.71-1.807.904-.904 1.266-1.627 1.808-2.711.362-.904.542-1.988.723-3.614v-12.29c0-1.626-.361-2.71-.723-3.614-.361-.904-.904-1.807-1.807-2.71-.904-.904-1.627-1.266-2.711-1.808-.904-.362-1.988-.542-3.614-.723H30Z" fill="#fff"/><path d="M30 22.229c-4.337 0-7.771 3.434-7.771 7.771s3.434 7.771 7.771 7.771 7.771-3.434 7.771-7.771-3.434-7.771-7.771-7.771Zm0 12.831c-2.71 0-5.06-2.168-5.06-5.06 0-2.71 2.168-5.06 5.06-5.06 2.71 0 5.06 2.168 5.06 5.06 0 2.71-2.35 5.06-5.06 5.06ZM37.952 23.855a1.807 1.807 0 1 0 0-3.614 1.807 1.807 0 0 0 0 3.614Z" fill="#fff"/></svg><svg viewBox="0 0 42 42" id="location" xmlns="http://www.w3.org/2000/svg"><path fill-rule="evenodd" clip-rule="evenodd" d="M21 7a8.75 8.75 0 0 0-8.75 8.75c0 4.879 2.82 12.018 8.75 18.472 5.93-6.454 8.75-13.593 8.75-18.472A8.75 8.75 0 0 0 21 7ZM8.75 15.75C8.75 8.985 14.235 3.5 21 3.5s12.25 5.485 12.25 12.25c0 6.391-3.788 15.013-11.013 22.237a1.75 1.75 0 0 1-2.474 0C12.538 30.763 8.75 22.141 8.75 15.75Z"/><path fill-rule="evenodd" clip-rule="evenodd" d="M21 17.5a1.75 1.75 0 1 0 0-3.5 1.75 1.75 0 0 0 0 3.5Zm0 3.5a5.25 5.25 0 1 0 0-10.5A5.25 5.25 0 0 0 21 21Z"/></svg><svg fill="none" viewBox="0 0 51 51" id="mute" xmlns="http://www.w3.org/2000/svg"><path d="M6.712 29.603a7.974 7.974 0 0 1 0-8.206 3.19 3.19 0 0 1 2.11-1.486l3.597-.72a.956.956 0 0 0 .547-.325l7.58-9.096c1.182-1.42 1.774-2.129 2.301-1.938.528.191.528 1.115.528 2.962v29.412c0 1.847 0 2.77-.528 2.962-.527.19-1.119-.519-2.301-1.938l-7.58-9.095a.956.956 0 0 0-.547-.326l-3.598-.72a3.19 3.19 0 0 1-2.11-1.486Z" fill="#012B5B" stroke="#012B5B" stroke-width="1.2"/><path d="m31.875 31.875 12.75-12.75M44.625 31.875l-12.75-12.75" stroke="#012B5B" stroke-width="1.2" stroke-linecap="round"/></svg><svg fill="none" viewBox="0 0 144 144" id="play" xmlns="http://www.w3.org/2000/svg"><path d="M30 104V40c0-5.278 0-7.916 1.11-9.478a6 6 0 0 1 4.122-2.473c1.899-.245 4.222.995 8.87 3.473l.013.007 60 32c5.157 2.75 7.736 4.126 8.581 5.957a6 6 0 0 1 0 5.028c-.845 1.83-3.424 3.206-8.581 5.957l-60 31.999-.016.009c-4.646 2.478-6.968 3.717-8.867 3.472a5.999 5.999 0 0 1-4.121-2.473C30 111.916 30 109.277 30 104Z" fill="#012B5B" stroke="#012B5B" stroke-width="2" stroke-linecap="round" stroke-linejoin="round"/></svg><svg viewBox="0 0 46 46" id="search" xmlns="http://www.w3.org/2000/svg"><g clip-path="url(#la)"><path d="M45.564 43.497 33.688 31.811c3.11-3.38 5.02-7.848 5.02-12.765C38.709 8.526 30.044 0 19.355 0 8.664 0 0 8.526 0 19.046 0 29.565 8.665 38.09 19.354 38.09c4.618 0 8.854-1.597 12.181-4.253l11.923 11.733c.58.572 1.524.572 2.105 0a1.45 1.45 0 0 0 .001-2.074Zm-26.21-8.336c-9.044 0-16.376-7.215-16.376-16.115 0-8.9 7.332-16.116 16.376-16.116s16.375 7.215 16.375 16.116c0 8.9-7.331 16.115-16.375 16.115Z"/></g><defs><clipPath id="la"><path fill="#fff" d="M0 0h46v46H0z"/></clipPath></defs></svg><svg fill="none" viewBox="0 0 60 60" id="telegram" xmlns="http://www.w3.org/2000/svg"><rect width="60" height="60" rx="30" fill="#012B5B"/><path d="m42 18.903-4.508 23.535s-.63 1.632-2.364.85l-10.401-8.26-.048-.023c1.405-1.307 12.3-11.451 12.776-11.91.737-.713.28-1.137-.577-.599L20.785 33.08l-6.209-2.164s-.977-.36-1.07-1.142c-.096-.784 1.103-1.208 1.103-1.208l25.31-10.283s2.081-.946 2.081.62Z" fill="#fff"/></svg><svg fill="none" viewBox="0 0 60 60" id="youtube" xmlns="http://www.w3.org/2000/svg"><rect width="60" height="60" rx="30" fill="#012B5B"/><path fill-rule="evenodd" clip-rule="evenodd" d="M16.894 40.585a3.854 3.854 0 0 1-1.566-.903 3.73 3.73 0 0 1-.963-1.505c-1.1-2.946-1.427-15.247.694-17.675a4.114 4.114 0 0 1 2.773-1.353c5.688-.598 23.264-.518 25.283.199.567.18 1.086.482 1.517.886.43.403.763.896.97 1.442 1.203 3.046 1.244 14.112-.163 17.038a3.807 3.807 0 0 1-1.774 1.752c-2.12 1.035-23.957 1.015-26.771.12Zm9.032-5.772 10.195-5.175-10.195-5.215v10.39Z" fill="#fff"/></svg></svg>