<svg width="80" height="80" viewBox="0 0 80 80" fill="none" xmlns="http://www.w3.org/2000/svg">
<circle cx="40" cy="40" r="40" fill="#012B5B"/>
<path d="M39.7011 39.2316C42.4805 39.2316 44.887 38.2347 46.8538 36.2679C48.82 34.3014 49.8172 31.8952 49.8172 29.1155C49.8172 26.3367 48.8203 23.9302 46.8535 21.9631C44.8867 19.9969 42.4802 19 39.7011 19C36.9213 19 34.5152 19.9969 32.5487 21.9634C30.5822 23.9299 29.585 26.3363 29.585 29.1155C29.585 31.8952 30.5822 34.3017 32.5487 36.2682C34.5158 38.2344 36.9223 39.2316 39.7011 39.2316ZM34.2893 23.7036C35.7982 22.1947 37.5683 21.4613 39.7011 21.4613C41.8336 21.4613 43.604 22.1947 45.1132 23.7036C46.6221 25.2129 47.3559 26.9833 47.3559 29.1155C47.3559 31.2483 46.6221 33.0183 45.1132 34.5276C43.604 36.0368 41.8336 36.7703 39.7011 36.7703C37.5689 36.7703 35.7988 36.0365 34.2893 34.5276C32.78 33.0187 32.0462 31.2483 32.0462 29.1155C32.0462 26.9833 32.78 25.2129 34.2893 23.7036Z" fill="white"/>
<path d="M57.4012 51.2959C57.3445 50.4775 57.2298 49.5848 57.0609 48.6421C56.8904 47.6923 56.6709 46.7945 56.4082 45.9738C56.1364 45.1256 55.7676 44.288 55.311 43.4853C54.8377 42.6522 54.2814 41.9268 53.6572 41.3298C53.0045 40.7053 52.2054 40.2031 51.2812 39.8369C50.3603 39.4725 49.3397 39.288 48.248 39.288C47.8192 39.288 47.4046 39.4639 46.6038 39.9852C46.111 40.3066 45.5345 40.6783 44.8911 41.0895C44.3409 41.44 43.5956 41.7685 42.675 42.0658C41.7768 42.3565 40.8649 42.5039 39.9644 42.5039C39.0647 42.5039 38.1527 42.3565 37.2539 42.0658C36.3342 41.7688 35.5886 41.4403 35.0394 41.0898C34.402 40.6825 33.8252 40.3108 33.325 39.9849C32.5249 39.4636 32.1103 39.2877 31.6815 39.2877C30.5895 39.2877 29.5692 39.4725 28.6486 39.8372C27.7251 40.2028 26.9256 40.7049 26.2723 41.3301C25.6481 41.9274 25.0918 42.6525 24.6188 43.4853C24.1628 44.288 23.7937 45.1253 23.522 45.9742C23.2595 46.7948 23.04 47.6923 22.8696 48.6421C22.7004 49.5835 22.586 50.4766 22.5293 51.2969C22.4735 52.0989 22.4453 52.9337 22.4453 53.777C22.4453 55.9694 23.1423 57.7443 24.5166 59.0533C25.874 60.345 27.6697 60.9999 29.8541 60.9999H50.0773C52.2611 60.9999 54.0568 60.345 55.4145 59.0533C56.7892 57.7453 57.4861 55.9698 57.4861 53.7767C57.4858 52.9305 57.4573 52.0957 57.4012 51.2959ZM53.7175 57.2701C52.8206 58.1237 51.6299 58.5387 50.077 58.5387H29.8541C28.3009 58.5387 27.1102 58.1237 26.2136 57.2704C25.334 56.4331 24.9066 55.2901 24.9066 53.777C24.9066 52.9901 24.9325 52.213 24.9844 51.467C25.0351 50.7352 25.1386 49.9312 25.2921 49.0769C25.4436 48.2332 25.6365 47.4414 25.866 46.7246C26.0861 46.0373 26.3863 45.3567 26.7587 44.7011C27.114 44.0762 27.5229 43.5401 27.9741 43.1082C28.3961 42.7041 28.928 42.3734 29.5548 42.1254C30.1345 41.896 30.7859 41.7704 31.4931 41.7515C31.5793 41.7973 31.7328 41.8848 31.9814 42.0469C32.4874 42.3766 33.0706 42.7528 33.7153 43.1646C34.4421 43.6279 35.3784 44.0464 36.497 44.4076C37.6406 44.7773 38.807 44.9651 39.9648 44.9651C41.1225 44.9651 42.2892 44.7773 43.4322 44.4079C44.5518 44.0461 45.4878 43.6279 46.2155 43.1639C46.8752 42.7423 47.4421 42.377 47.9481 42.0469C48.1967 41.8851 48.3502 41.7973 48.4364 41.7515C49.1439 41.7704 49.7954 41.896 50.3754 42.1254C51.0018 42.3734 51.5337 42.7044 51.9557 43.1082C52.4069 43.5398 52.8158 44.0759 53.1711 44.7014C53.5438 45.3567 53.8444 46.0376 54.0642 46.7243C54.2939 47.4421 54.4872 48.2335 54.6384 49.0766C54.7916 49.9325 54.8954 50.7368 54.946 51.4674V51.468C54.9983 52.2111 55.0245 52.9878 55.0249 53.777C55.0245 55.2905 54.5971 56.4331 53.7175 57.2701Z" fill="white"/>
</svg>
