<svg width="184" height="31" viewBox="0 0 184 31" fill="none" xmlns="http://www.w3.org/2000/svg">
<g clip-path="url(#clip0_3230_947)">
<path d="M9.68928 30.0878H8.04608C7.42813 30.0878 6.7821 29.9988 6.12202 29.91C5.46194 29.8211 4.80185 29.7174 4.14178 29.5841C3.51801 29.4632 2.90665 29.2796 2.31604 29.036C1.64239 28.8447 1.04857 28.4216 0.628781 27.8338C0.208988 27.2462 -0.0127699 26.5274 -0.00129964 25.7916V5.05182C-0.0226824 4.78352 0.00872474 4.51345 0.0908916 4.25853C0.173059 4.00362 0.304208 3.76935 0.4762 3.5704C0.855981 3.19135 1.3121 2.90775 1.81042 2.74081C3.05546 2.31571 4.34135 2.03748 5.64452 1.91123C6.99277 1.78283 8.20055 1.71863 9.26792 1.71863C11.2858 1.69297 13.2965 1.97743 15.2367 2.56305C16.9257 3.07071 18.4919 3.95476 19.8292 5.15552C21.1381 6.37033 22.1581 7.8927 22.8067 9.59978C24.1808 13.6415 24.1808 18.0613 22.8067 22.1029C22.1756 23.7974 21.1861 25.3174 19.9135 26.5472C18.6203 27.7703 17.0922 28.685 15.4334 29.2286C13.5727 29.8283 11.6347 30.1183 9.68928 30.0878ZM7.32981 23.5992C7.63878 23.6584 8.01797 23.7079 8.46739 23.7474C8.9168 23.7868 9.33817 23.7868 9.73141 23.7474C10.6291 23.7587 11.5219 23.6083 12.3717 23.3028C13.1525 23.0202 13.8595 22.5483 14.4362 21.9252C15.072 21.2374 15.5521 20.4068 15.8406 19.4956C16.1836 18.3411 16.3448 17.1351 16.3181 15.9254C16.4734 13.7517 15.841 11.597 14.5485 9.89608C13.9457 9.2221 13.212 8.69323 12.3976 8.34553C11.5832 7.99785 10.7073 7.8395 9.82968 7.88133H8.63595L7.38599 8.01465L7.32981 23.5992Z" fill="#3579F6"/>
<path d="M48.7025 18.5773C48.7297 20.2503 48.458 21.9137 47.9018 23.4808C47.4142 24.8498 46.6472 26.089 45.6549 27.1102C44.6577 28.1049 43.47 28.8627 42.1718 29.3324C40.7208 29.8536 39.1962 30.1091 37.6636 30.088C36.1275 30.1093 34.6004 29.8382 33.1554 29.2879C31.8566 28.7914 30.6703 28.0143 29.6724 27.0066C28.6876 25.9844 27.9215 24.7519 27.4253 23.3918C26.3582 20.3063 26.3582 16.9224 27.4253 13.8368C27.9211 12.4765 28.6874 11.244 29.6724 10.2221C30.6691 9.20904 31.8554 8.42689 33.1554 7.9259C34.6003 7.3753 36.1275 7.10433 37.6636 7.12598C39.2012 7.10174 40.7297 7.37797 42.1718 7.94074C43.4696 8.45338 44.6547 9.23973 45.6549 10.2517C46.6395 11.2739 47.4057 12.5063 47.9018 13.8663C48.4491 15.369 48.7208 16.9677 48.7025 18.5773ZM33.9559 18.5773C33.8681 20.0406 34.2168 21.4964 34.9531 22.74C35.2622 23.2196 35.6827 23.6076 36.1744 23.867C36.6662 24.1264 37.2127 24.2484 37.7619 24.2214C38.2991 24.246 38.8328 24.1221 39.3107 23.8622C39.7884 23.6025 40.1938 23.2157 40.4865 22.74C41.1875 21.4932 41.52 20.0542 41.4415 18.6069C41.524 17.1668 41.1858 15.7344 40.4724 14.5033C40.1531 14.0556 39.7395 13.6922 39.2643 13.442C38.789 13.1917 38.2651 13.0615 37.7338 13.0615C37.2026 13.0615 36.6787 13.1917 36.2034 13.442C35.7282 13.6922 35.3146 14.0556 34.9952 14.5033C34.2628 15.7177 33.9001 17.1393 33.9559 18.5773Z" fill="#3579F6"/>
<path d="M65.1775 15.6885C65.2079 15.3163 65.1579 14.9416 65.0314 14.5927C64.9051 14.2439 64.7052 13.9296 64.4472 13.6737C63.8759 13.2156 63.1697 12.9847 62.4529 13.0219C61.8891 13.0215 61.3277 13.0962 60.7817 13.2441C60.2786 13.3734 59.8025 13.5995 59.3773 13.9108V29.3322C58.9387 29.4529 58.493 29.542 58.043 29.599C57.4241 29.6885 56.7999 29.7329 56.1751 29.7323C55.6155 29.7374 55.0565 29.6928 54.5038 29.599C54.0572 29.5286 53.6334 29.3456 53.268 29.0656C52.9181 28.7866 52.6463 28.413 52.4815 27.9841C52.2815 27.4059 52.1908 26.792 52.2147 26.1768V12.8441C52.1838 12.1565 52.3501 11.475 52.6922 10.8887C53.053 10.3469 53.5052 9.8799 54.0263 9.51095C55.1265 8.72884 56.3411 8.14323 57.6217 7.77767C59.194 7.31522 60.8206 7.09079 62.4529 7.11106C65.063 6.92995 67.6524 7.70438 69.784 9.30357C70.6376 10.0391 71.3149 10.9762 71.7615 12.0391C72.2079 13.1019 72.411 14.2607 72.3541 15.4217V29.3322C71.9202 29.4522 71.4792 29.5413 71.0339 29.599C70.415 29.6885 69.7909 29.7329 69.1661 29.7323C68.6064 29.7374 68.0474 29.6928 67.4949 29.599C67.0433 29.5309 66.6143 29.3479 66.2449 29.0656C65.9002 28.7847 65.6334 28.4113 65.4724 27.9841C65.2676 27.407 65.1722 26.7929 65.1915 26.1768L65.1775 15.6885Z" fill="#3579F6"/>
<path d="M85.1982 7.1112C86.6162 7.09154 88.0313 7.25571 89.4114 7.60005C90.5579 7.87579 91.6446 8.37849 92.6135 9.08146C93.4875 9.73115 94.1927 10.6023 94.6639 11.6147C95.1628 12.7456 95.4079 13.9825 95.3801 15.2293V25.1845C95.4076 25.8689 95.1923 26.5397 94.7763 27.0659C94.3722 27.5634 93.8987 27.993 93.3718 28.3399C90.9931 29.6291 88.3319 30.2273 85.6616 30.0732C84.311 30.0875 82.9633 29.9383 81.6449 29.6287C80.5536 29.3777 79.5126 28.9265 78.5692 28.2954C77.7362 27.7311 77.0544 26.9507 76.589 26.0289C76.1073 25.04 75.8659 23.9405 75.8867 22.829C75.8337 21.9586 75.9607 21.0864 76.259 20.273C76.5572 19.4596 77.0198 18.7242 77.6142 18.1181C79.1524 16.8652 81.023 16.1504 82.9651 16.0737L88.4845 15.4516V15.1405C88.504 14.7525 88.4111 14.3674 88.2179 14.0365C88.0246 13.7056 87.7404 13.4448 87.4031 13.2887C86.4191 12.8684 85.3594 12.6812 84.2992 12.7406C83.2508 12.7386 82.2054 12.8579 81.1815 13.0961C80.2221 13.3042 79.2822 13.6016 78.3727 13.9849C77.9681 13.6664 77.6488 13.2428 77.4458 12.7554C77.1975 12.2255 77.0678 11.6427 77.0665 11.0518C77.0337 10.3877 77.2225 9.73247 77.6001 9.2C78.0402 8.67707 78.5946 8.27533 79.2154 8.02967C80.1498 7.67351 81.1209 7.43482 82.1084 7.31857C83.1333 7.18221 84.1651 7.11296 85.1982 7.1112ZM85.5352 24.5772C86.0672 24.5752 86.5981 24.5257 87.1221 24.4289C87.5736 24.3672 88.0109 24.2218 88.4142 23.9994V20.4439L85.3808 20.7105C84.7058 20.7391 84.0447 20.9211 83.4426 21.2439C83.2115 21.3702 83.0182 21.5617 82.8842 21.7971C82.7503 22.0326 82.6811 22.3026 82.6841 22.5771C82.6724 22.8621 82.7264 23.1456 82.8413 23.4036C82.9563 23.6616 83.1289 23.8864 83.3442 24.0587C84.0027 24.4757 84.771 24.6575 85.5352 24.5772Z" fill="#3579F6"/>
<path d="M106.848 21.955C106.82 22.2684 106.868 22.5842 106.988 22.8721C107.109 23.16 107.298 23.4105 107.536 23.5995C108.132 23.9612 108.816 24.1312 109.502 24.0883C109.94 24.0846 110.377 24.0449 110.808 23.9697C111.209 23.9107 111.603 23.8166 111.988 23.6883C112.248 24.02 112.47 24.383 112.648 24.7697C112.844 25.2352 112.936 25.7423 112.915 26.2512C112.929 26.776 112.829 27.2974 112.622 27.775C112.415 28.2527 112.107 28.674 111.721 29.0066C110.467 29.8436 108.986 30.2187 107.508 30.0732C105.468 30.2125 103.447 29.5823 101.806 28.2954C101.088 27.5494 100.536 26.6437 100.191 25.6441C99.8457 24.6447 99.7162 23.5768 99.8118 22.518V3.46698C100.121 3.3781 100.561 3.28427 101.132 3.18551C101.74 3.08143 102.356 3.03186 102.972 3.03736C103.973 2.97777 104.97 3.21375 105.851 3.71879C106.251 4.0765 106.557 4.5372 106.739 5.05627C106.921 5.57533 106.973 6.13517 106.89 6.68162V9.52597H112.41C112.601 9.91573 112.761 10.3221 112.887 10.7407C113.05 11.2666 113.131 11.817 113.126 12.3703C113.201 13.1814 112.969 13.9911 112.48 14.622C112.247 14.8559 111.971 15.0369 111.669 15.1541C111.367 15.2713 111.045 15.3221 110.724 15.3035H106.89L106.848 21.955Z" fill="#3579F6"/>
<path d="M127.115 30.088C125.548 30.1016 123.988 29.8514 122.495 29.3473C121.128 28.8877 119.866 28.1363 118.787 27.14C117.707 26.1228 116.857 24.862 116.301 23.4513C115.669 21.8007 115.363 20.0312 115.402 18.2515C115.359 16.5243 115.665 14.8071 116.301 13.2147C116.828 11.9203 117.614 10.7616 118.606 9.81799C119.597 8.87441 120.771 8.16832 122.045 7.74823C123.298 7.32439 124.606 7.10948 125.922 7.11124C127.304 7.09379 128.678 7.33454 129.98 7.82232C131.14 8.25954 132.212 8.92285 133.14 9.77776C134.021 10.5989 134.724 11.6091 135.205 12.7406C135.705 13.9296 135.958 15.2175 135.95 16.5182C135.98 16.9414 135.925 17.3668 135.787 17.7655C135.649 18.1643 135.431 18.527 135.148 18.8293C134.524 19.4063 133.743 19.7635 132.916 19.8514L122.509 21.4957C122.664 21.9798 122.912 22.4246 123.239 22.802C123.565 23.1794 123.962 23.4812 124.405 23.6883C125.434 24.1911 126.558 24.4394 127.691 24.4142C128.797 24.424 129.898 24.2694 130.964 23.955C131.838 23.711 132.678 23.3475 133.463 22.8735C133.929 23.1887 134.319 23.6149 134.601 24.1179C134.83 24.5082 134.98 24.9453 135.038 25.4008C135.096 25.8561 135.063 26.3192 134.939 26.7599C134.816 27.2005 134.605 27.6086 134.322 27.9576C134.039 28.3065 133.689 28.5882 133.294 28.7843C132.346 29.3053 131.32 29.651 130.261 29.8065C129.221 29.982 128.169 30.0761 127.115 30.088ZM125.936 12.6221C125.333 12.6068 124.734 12.728 124.18 12.9776C123.721 13.1848 123.309 13.493 122.972 13.8813C122.665 14.2449 122.427 14.6674 122.27 15.1257C122.118 15.5792 122.029 16.0529 122.003 16.533L129.208 15.2887C129.08 14.6095 128.756 13.9887 128.282 13.5109C127.97 13.1999 127.6 12.9603 127.197 12.8073C126.793 12.6543 126.364 12.5913 125.936 12.6221Z" fill="#3579F6"/>
<path d="M146.708 29.3323L145.304 29.5694C144.701 29.6755 144.09 29.7299 143.478 29.7324C142.919 29.7374 142.36 29.6929 141.807 29.5989C141.361 29.5286 140.937 29.3457 140.571 29.0657C140.226 28.7852 139.959 28.4116 139.798 27.9842C139.594 27.4071 139.498 26.793 139.518 26.1769V0.400284L140.923 0.148423C141.531 0.0467694 142.145 -0.00278191 142.763 0.00027244C143.317 -0.00393964 143.872 0.0406971 144.42 0.13364C144.866 0.204033 145.29 0.38695 145.655 0.666927C146.004 0.946442 146.276 1.31999 146.441 1.74837C146.639 2.32209 146.73 2.93081 146.708 3.54087V29.3323Z" fill="#3579F6"/>
<path d="M158.505 29.3325L157.101 29.5694C156.498 29.6756 155.887 29.7302 155.275 29.7324C154.72 29.7368 154.166 29.6922 153.617 29.5991C153.166 29.531 152.737 29.348 152.368 29.0657C152.023 28.7848 151.757 28.4114 151.596 27.9844C151.392 27.407 151.296 26.793 151.315 26.1771V0.400385L152.719 0.148524C153.324 0.0476009 153.933 -0.00194839 154.545 0.000373422C155.105 -0.00459601 155.663 0.0400428 156.216 0.133741C156.662 0.204134 157.087 0.387051 157.452 0.667028C157.797 0.947946 158.064 1.32148 158.224 1.74848C158.427 2.3212 158.523 2.92993 158.505 3.54098V29.3325Z" fill="#3579F6"/>
<path d="M184.202 18.5773C184.229 20.2503 183.958 21.9137 183.402 23.4808C182.914 24.8498 182.147 26.089 181.154 27.1102C180.158 28.1049 178.969 28.8627 177.671 29.3324C176.221 29.8536 174.695 30.1091 173.163 30.088C171.627 30.1093 170.1 29.8382 168.655 29.2879C167.361 28.7899 166.18 28.0129 165.186 27.0066C164.196 25.9861 163.425 24.7535 162.924 23.3918C161.859 20.3061 161.859 16.9225 162.924 13.8368C163.425 12.4752 164.196 11.2425 165.186 10.2221C166.179 9.21078 167.359 8.42872 168.655 7.9259C170.1 7.3753 171.627 7.10433 173.163 7.12598C174.7 7.10174 176.23 7.37797 177.671 7.94074C178.969 8.45338 180.154 9.23973 181.154 10.2517C182.139 11.2739 182.905 12.5063 183.402 13.8663C183.949 15.369 184.22 16.9677 184.202 18.5773ZM169.455 18.5773C169.368 20.0406 169.717 21.4964 170.453 22.74C170.762 23.2196 171.183 23.6076 171.674 23.867C172.165 24.1264 172.712 24.2484 173.261 24.2214C173.796 24.2433 174.327 24.1182 174.802 23.8586C175.278 23.5989 175.68 23.2134 175.972 22.74C176.673 21.4936 177.007 20.0542 176.927 18.6069C177.009 17.1668 176.672 15.7344 175.958 14.5033C175.638 14.0556 175.225 13.6922 174.75 13.442C174.275 13.1917 173.751 13.0615 173.219 13.0615C172.688 13.0615 172.164 13.1917 171.689 13.442C171.213 13.6922 170.8 14.0556 170.481 14.5033C169.753 15.7193 169.395 17.1409 169.455 18.5773Z" fill="#3579F6"/>
</g>
<defs>
<clipPath id="clip0_3230_947">
<rect width="184" height="31" fill="white"/>
</clipPath>
</defs>
</svg>
