<svg width="150" height="31" viewBox="0 0 150 31" fill="none" xmlns="http://www.w3.org/2000/svg">
<path fill-rule="evenodd" clip-rule="evenodd" d="M6.42855 0C2.87816 0 0 2.89153 0 6.45842V24.5421C0 28.1092 2.87816 31 6.42855 31H56.5714C60.1218 31 63 28.1092 63 24.5421V6.45842C63 2.89153 60.1218 0 56.5714 0H6.42855ZM52.4543 20.6323H55.2856V14.0026C55.2856 12.6284 54.8472 11.6368 53.9703 11.0277C53.0933 10.4186 51.9638 10.114 50.5816 10.114C48.7237 10.114 47.1557 10.6523 45.8775 11.7289L46.9476 13.5351C47.8691 12.7276 48.9169 12.3239 50.0911 12.3239C50.8045 12.3239 51.3767 12.4797 51.8077 12.7914C52.2388 13.103 52.4543 13.521 52.4543 14.0451V15.4263C51.7112 14.5904 50.5741 14.1726 49.0432 14.1726C48.0474 14.1726 47.1705 14.4489 46.4125 15.0012C45.6694 15.5537 45.2978 16.3824 45.2978 17.4874C45.2978 18.5499 45.6768 19.3856 46.4348 19.9948C47.2077 20.5897 48.0772 20.8873 49.0432 20.8873C50.5444 20.8873 51.6814 20.4481 52.4543 19.5698V20.6323ZM52.4543 18.1674C51.9936 18.7623 51.2355 19.0599 50.1803 19.0599C49.6006 19.0599 49.1176 18.9252 48.7311 18.6561C48.3447 18.3869 48.1514 18.0186 48.1514 17.5511C48.1514 17.0695 48.3447 16.6942 48.7311 16.425C49.1176 16.1416 49.6006 16 50.1803 16C51.2355 16 51.9936 16.2974 52.4543 16.8924V18.1674ZM42.0678 20.8866C41.072 20.8866 40.314 20.6458 39.7938 20.1641C39.2736 19.6825 39.0135 18.9883 39.0135 18.0817V12.7269H37.2299V10.3683H39.0135V7.56341H41.8672V10.3683H44.052V12.7269H41.8672V17.3593C41.8672 17.6851 41.9564 17.9542 42.1347 18.1667C42.313 18.3791 42.5508 18.4854 42.8481 18.4854C43.294 18.4854 43.621 18.3862 43.8291 18.188L44.431 20.2278C43.9108 20.667 43.123 20.8866 42.0678 20.8866ZM32.8164 20.6323H35.6478V14.0026C35.6478 12.6284 35.2093 11.6368 34.3324 11.0277C33.4555 10.4186 32.3259 10.114 30.9437 10.114C29.0858 10.114 27.5178 10.6523 26.2396 11.7289L27.3097 13.5351C28.2311 12.7276 29.279 12.3239 30.4533 12.3239C31.1667 12.3239 31.7389 12.4797 32.1699 12.7914C32.6009 13.103 32.8164 13.521 32.8164 14.0451V15.4263C32.0733 14.5904 30.9363 14.1726 29.4054 14.1726C28.4096 14.1726 27.5327 14.4489 26.7747 15.0012C26.0315 15.5537 25.6599 16.3824 25.6599 17.4874C25.6599 18.5499 26.0389 19.3856 26.797 19.9948C27.5698 20.5897 28.4392 20.8873 29.4054 20.8873C30.9066 20.8873 32.0435 20.4481 32.8164 19.5698V20.6323ZM32.8164 18.1674C32.3557 18.7623 31.5976 19.0599 30.5424 19.0599C29.9627 19.0599 29.4797 18.9252 29.0933 18.6561C28.7068 18.3869 28.5136 18.0186 28.5136 17.5511C28.5136 17.0695 28.7068 16.6942 29.0933 16.425C29.4797 16.1416 29.9627 16 30.5424 16C31.5976 16 32.3557 16.2974 32.8164 16.8924V18.1674ZM23.543 20.6316H20.7117V6.45842H23.543V20.6316ZM10.5457 19.315C11.4077 20.3633 12.515 20.8874 13.8675 20.8874C15.2795 20.8874 16.4239 20.4057 17.3009 19.4425C18.1926 18.4792 18.6385 17.1618 18.6385 15.4902C18.6385 13.8185 18.1926 12.5082 17.3009 11.5591C16.4239 10.5958 15.2795 10.1142 13.8675 10.1142C12.5002 10.1142 11.3928 10.6312 10.5457 11.6653V10.3691H7.71426V24.5423H10.5457V19.315ZM14.9376 17.6575C14.4472 18.21 13.7932 18.4862 12.9757 18.4862C12.5299 18.4862 12.0691 18.3729 11.5935 18.1463C11.1327 17.9196 10.7835 17.6435 10.5457 17.3176V13.684C10.7835 13.3581 11.1327 13.082 11.5935 12.8553C12.0542 12.6287 12.515 12.5153 12.9757 12.5153C13.7932 12.5153 14.4472 12.7915 14.9376 13.3441C15.4429 13.8965 15.6957 14.6119 15.6957 15.4902C15.6957 16.3826 15.4429 17.1051 14.9376 17.6575Z" fill="white"/>
<path d="M148.494 20.4161C147.489 21.472 146.154 22 144.489 22C142.825 22 141.49 21.472 140.485 20.4161C139.495 19.3458 139 18.0368 139 16.4891C139 14.9415 139.495 13.6396 140.485 12.5838C141.49 11.5279 142.825 11 144.489 11C146.154 11 147.489 11.5279 148.494 12.5838C149.498 13.6396 150 14.9415 150 16.4891C150 18.0368 149.498 19.3458 148.494 20.4161ZM142.552 18.6804C143.026 19.2591 143.671 19.5483 144.489 19.5483C145.307 19.5483 145.953 19.2591 146.427 18.6804C146.915 18.0874 147.159 17.357 147.159 16.4891C147.159 15.6358 146.915 14.9198 146.427 14.3412C145.953 13.7481 145.307 13.4516 144.489 13.4516C143.671 13.4516 143.026 13.7481 142.552 14.3412C142.078 14.9198 141.841 15.6358 141.841 16.4891C141.841 17.357 142.078 18.0874 142.552 18.6804Z" fill="white"/>
<path d="M138 21H135.196V15.101C135.196 13.8889 134.541 13.2828 133.232 13.2828C132.216 13.2828 131.407 13.6666 130.803 14.4343V21H128V11.2424H130.803V12.5151C131.73 11.505 132.974 11 134.534 11C135.682 11 136.542 11.276 137.117 11.8282C137.706 12.3804 138 13.1414 138 14.1111V21Z" fill="white"/>
<path d="M124.493 20.4161C123.488 21.472 122.153 22 120.49 22C118.825 22 117.49 21.472 116.486 20.4161C115.495 19.3458 115 18.0368 115 16.4891C115 14.9415 115.495 13.6396 116.486 12.5838C117.49 11.5279 118.825 11 120.49 11C122.153 11 123.488 11.5279 124.493 12.5838C125.498 13.6396 126 14.9415 126 16.4891C126 18.0368 125.498 19.3458 124.493 20.4161ZM118.553 18.6804C119.025 19.2591 119.671 19.5483 120.49 19.5483C121.308 19.5483 121.953 19.2591 122.427 18.6804C122.914 18.0874 123.158 17.357 123.158 16.4891C123.158 15.6358 122.914 14.9198 122.427 14.3412C121.953 13.7481 121.308 13.4516 120.49 13.4516C119.671 13.4516 119.025 13.7481 118.553 14.3412C118.078 14.9198 117.842 15.6358 117.842 16.4891C117.842 17.357 118.078 18.0874 118.553 18.6804Z" fill="white"/>
<path d="M113 21H110.359V14.8383C110.359 13.8014 109.863 13.2828 108.873 13.2828C108.446 13.2828 108.047 13.3973 107.677 13.6262C107.319 13.8552 107.03 14.1178 106.81 14.4141V21H104.169V14.8383C104.169 13.8014 103.673 13.2828 102.683 13.2828C102.271 13.2828 101.879 13.3973 101.507 13.6262C101.135 13.8552 100.841 14.1246 100.62 14.4343V21H98V11.2424H100.62V12.5151C100.867 12.165 101.301 11.8282 101.92 11.505C102.539 11.1683 103.192 11 103.88 11C105.324 11 106.246 11.5926 106.645 12.7778C106.961 12.2929 107.428 11.8753 108.048 11.5252C108.68 11.1751 109.355 11 110.069 11C111.005 11 111.727 11.249 112.236 11.7474C112.745 12.2322 113 12.9663 113 13.9495V21Z" fill="white"/>
<path d="M83.0894 25.8556L83.4872 23.5052C83.7392 23.6151 84.0181 23.6701 84.326 23.6701C85.0377 23.6701 85.5059 23.4296 85.7296 22.9485L86.1073 22.1031L82 12H84.8497L87.489 18.9279L90.1292 12H93L88.2435 23.5876C87.8946 24.4674 87.4055 25.079 86.7773 25.4227C86.149 25.78 85.3598 25.9725 84.4095 26C83.9204 26 83.4807 25.9519 83.0894 25.8556Z" fill="white"/>
<path d="M73.5916 18.5568C73.8095 18.8729 74.1292 19.1409 74.5512 19.3609C74.9724 19.5671 75.3944 19.6702 75.8163 19.6702C76.5643 19.6702 77.1696 19.4089 77.6322 18.8866C78.0948 18.3506 78.3265 17.6496 78.3265 16.7835C78.3265 15.9175 78.0948 15.2165 77.6322 14.6805C77.1696 14.1444 76.5643 13.8763 75.8163 13.8763C75.3944 13.8763 74.9724 13.9864 74.5512 14.2062C74.1292 14.4262 73.8095 14.7011 73.5916 15.031V18.5568ZM73.5916 21.7526H71V8H73.5916V13.0723C74.3671 12.055 75.3806 11.5464 76.6326 11.5464C77.9114 11.5464 78.9587 12.0207 79.775 12.9691C80.5918 13.9176 81 15.189 81 16.7835C81 18.4055 80.5918 19.6838 79.775 20.6187C78.9587 21.5395 77.9114 22 76.6326 22C75.4081 22 74.3947 21.4915 73.5916 20.4743V21.7526Z" fill="white"/>
</svg>
