<svg width="184" height="32" viewBox="0 0 184 32" fill="none" xmlns="http://www.w3.org/2000/svg">
<path fill-rule="evenodd" clip-rule="evenodd" d="M41.9499 21.3275H38.2449V16.6907H41.9499C42.8924 16.6907 43.5749 16.7565 43.9649 16.9209C44.8749 17.2169 45.3624 17.9074 45.3624 18.9598C45.3624 20.5383 44.2249 21.3275 41.9499 21.3275ZM42.8924 13.3364H33.5324V30.6012H38.2449V24.6818H42.7624C47.8973 24.6818 50.4648 22.7416 50.4648 18.9269C50.4648 15.2109 47.9298 13.3364 42.8924 13.3364ZM61.7098 20.0779C59.7923 20.0779 58.4923 20.6698 57.7448 21.8866C57.2248 22.7087 56.9648 23.8926 56.9648 25.4711V30.6012H52.6098V18.1048H56.9648V20.1436C57.8748 18.4665 59.5973 17.6115 62.0998 17.6115H62.6198V20.0779H61.7098ZM69.3473 16.2632H64.8298V13.3364H69.3473V16.2632ZM69.2498 30.6012H64.8948V18.1048H69.2498V30.6012ZM81.1447 30.6012H76.3023L70.9723 18.1048H75.7173L78.7397 26.8522L81.7297 18.1048H86.4747L81.1447 30.6012ZM93.7872 28.5623C93.2347 28.5623 92.7472 28.4636 92.3247 28.2334C91.8047 27.9703 91.5772 27.6086 91.5772 27.1153C91.5772 26.1617 92.4222 25.5697 94.1122 25.3066C95.1197 25.1751 95.6397 25.0764 95.6722 25.0764C95.9322 25.0107 96.3547 24.8791 96.9722 24.6489V25.4382C96.9722 26.5892 96.5497 27.4442 95.7047 28.0032C95.1197 28.365 94.5022 28.5623 93.7872 28.5623ZM101.327 29.6146C101.262 29.3186 101.23 28.7925 101.23 28.0361L101.327 22.3141C101.327 21.0973 101.067 20.1765 100.547 19.5188C99.5397 18.2363 97.5572 17.6115 94.6322 17.6115C92.1947 17.6115 90.3747 18.1048 89.2047 19.0913C88.2947 19.8477 87.8397 20.8671 87.7747 22.1497H91.9347C91.9347 20.8013 92.8447 20.1108 94.6322 20.1108C96.1922 20.1108 96.9722 20.6698 96.9722 21.7879C96.9722 22.0181 96.9722 22.1168 96.9722 22.1168C96.9722 22.61 96.7447 22.906 96.2897 23.0376C95.9972 23.1362 95.0222 23.2677 93.4297 23.4322C91.3172 23.6295 89.7897 24.0241 88.8472 24.5503C87.6772 25.1751 87.0922 26.1288 87.0922 27.4442C87.0922 28.3978 87.3847 29.1871 88.0022 29.8119C88.8472 30.6669 90.2447 31.0944 92.1622 31.0944C94.3397 31.0944 95.9647 30.5354 97.0372 29.3844H97.1347L97.4922 30.6012H102.075V30.4039C101.685 30.3052 101.425 30.0421 101.327 29.6146ZM109.062 30.9629C107.6 30.9629 106.56 30.6669 105.942 30.0421C105.422 29.4831 105.195 28.5623 105.195 27.3126V20.604H102.53V18.1048H105.195V14.323H109.55V18.1048H112.637V20.604H109.55V26.622C109.55 27.214 109.615 27.6086 109.745 27.8059C109.972 28.1677 110.492 28.3321 111.272 28.3321C111.727 28.3321 112.182 28.2663 112.637 28.1019V30.6341C111.305 30.8642 110.102 30.9629 109.062 30.9629ZM125.767 19.5517C125.377 19.9463 124.76 20.1436 123.947 20.1436H119.592V16.6907H123.752C125.442 16.6907 126.287 17.2497 126.287 18.3678C126.287 18.8282 126.125 19.2557 125.767 19.5517ZM127.847 21.3604V21.3275C130.025 20.7027 131.13 19.5188 131.13 17.743C131.13 14.8162 129.05 13.3364 124.922 13.3364H114.88V30.6011H124.435C129.57 30.6011 132.137 28.9898 132.137 25.767C132.137 24.3201 131.585 23.202 130.447 22.3798C129.732 21.8865 128.887 21.5248 127.847 21.3604ZM124.5 27.2798H119.592V23.3335H123.882H124.175C124.337 23.3664 124.532 23.3664 124.727 23.3664C125.507 23.3664 126.125 23.5966 126.58 24.0241C126.937 24.3859 127.132 24.8134 127.132 25.3067C127.132 26.0301 126.775 26.5892 126.06 26.918C125.572 27.1482 125.052 27.2798 124.5 27.2798ZM142.505 28.0032C141.952 28.365 141.302 28.5623 140.62 28.5623C140.067 28.5623 139.547 28.4636 139.125 28.2334C138.637 27.9703 138.377 27.6086 138.377 27.1153C138.377 26.1617 139.255 25.5697 140.945 25.3066C141.92 25.1751 142.44 25.0764 142.505 25.0764C142.765 25.0107 143.187 24.8791 143.805 24.6489V25.4382C143.805 26.5892 143.382 27.4442 142.505 28.0032ZM148.16 29.6146C148.062 29.3186 148.062 28.7925 148.062 28.0361L148.127 22.3141C148.16 21.0973 147.9 20.1765 147.38 19.5188C146.34 18.2363 144.39 17.6115 141.465 17.6115C138.995 17.6115 137.207 18.1048 136.037 19.0913C135.127 19.8477 134.64 20.8671 134.607 22.1497H138.767C138.767 20.8013 139.677 20.1108 141.432 20.1108C143.025 20.1108 143.805 20.6698 143.805 21.7879C143.805 22.0181 143.805 22.1168 143.805 22.1168C143.805 22.61 143.545 22.906 143.122 23.0376C142.797 23.1362 141.855 23.2677 140.262 23.4322C138.15 23.6295 136.59 24.0241 135.68 24.5503C134.477 25.1751 133.892 26.1288 133.892 27.4442C133.892 28.3978 134.217 29.1871 134.835 29.8119C135.68 30.6669 137.077 31.0944 138.995 31.0944C141.172 31.0944 142.797 30.5354 143.87 29.3844H143.967L144.325 30.6012H148.907V30.4039C148.517 30.3052 148.257 30.0421 148.16 29.6146ZM161.029 30.6012V23.3664C161.029 21.196 160.217 20.1108 158.559 20.1108C157.682 20.1108 156.967 20.4067 156.447 20.9987C155.927 21.5906 155.667 22.4456 155.667 23.5637V30.6012H151.28V18.1048H155.472V19.5846C156.609 18.2692 158.267 17.6115 160.509 17.6115C163.792 17.6115 165.417 19.3215 165.417 22.7416V30.6012H161.029ZM182.999 30.6012H177.832L173.737 25.4053L172.274 26.7207V30.6012H167.887V13.3364H172.274V22.8402L177.247 18.1048H182.512L176.694 23.0376L182.999 30.6012ZM1 0.905762V15.3095H4.05499C12.0175 15.3095 16.0474 19.4202 16.0474 27.4771V30.5354H30.2824V0.905762H1ZM24.2374 24.4187H21.8974C20.8899 15.8028 15.5599 10.4096 7.07748 9.39016V7.02242H24.2374V24.4187Z" fill="#67A600"/>
<path fill-rule="evenodd" clip-rule="evenodd" d="M12.44 30.5353V18.9597H1V30.5353H12.44Z" fill="#231F20"/>
</svg>
