<svg width="100" height="100" viewBox="0 0 100 100" fill="none" xmlns="http://www.w3.org/2000/svg">
<path fill-rule="evenodd" clip-rule="evenodd" d="M50.0002 16.6663C38.4942 16.6663 29.1668 25.9937 29.1668 37.4997C29.1668 49.1159 35.8822 66.1135 50.0002 81.4801C64.1181 66.1135 70.8335 49.1159 70.8335 37.4997C70.8335 25.9937 61.5061 16.6663 50.0002 16.6663ZM20.8335 37.4997C20.8335 21.3914 33.8919 8.33301 50.0002 8.33301C66.1085 8.33301 79.1668 21.3914 79.1668 37.4997C79.1668 52.7172 70.1483 73.2441 52.9464 90.446C51.3193 92.0731 48.6811 92.0731 47.0539 90.446C29.852 73.2441 20.8335 52.7172 20.8335 37.4997Z" fill="#012B5B"/>
<path fill-rule="evenodd" clip-rule="evenodd" d="M50.0002 41.6663C52.3013 41.6663 54.1668 39.8009 54.1668 37.4997C54.1668 35.1985 52.3013 33.333 50.0002 33.333C47.699 33.333 45.8335 35.1985 45.8335 37.4997C45.8335 39.8009 47.699 41.6663 50.0002 41.6663ZM50.0002 49.9997C56.9037 49.9997 62.5002 44.4032 62.5002 37.4997C62.5002 30.5961 56.9037 24.9997 50.0002 24.9997C43.0966 24.9997 37.5002 30.5961 37.5002 37.4997C37.5002 44.4032 43.0966 49.9997 50.0002 49.9997Z" fill="#012B5B"/>
</svg>
