<svg width="100" height="100" viewBox="0 0 100 100" fill="none" xmlns="http://www.w3.org/2000/svg">
<path fill-rule="evenodd" clip-rule="evenodd" d="M50.0002 16.6668C38.4942 16.6668 29.1668 25.9942 29.1668 37.5002C29.1668 49.1164 35.8822 66.114 50.0002 81.4806C64.1181 66.114 70.8335 49.1164 70.8335 37.5002C70.8335 25.9942 61.5061 16.6668 50.0002 16.6668ZM20.8335 37.5002C20.8335 21.3919 33.8919 8.3335 50.0002 8.3335C66.1085 8.3335 79.1668 21.3919 79.1668 37.5002C79.1668 52.7176 70.1483 73.2446 52.9464 90.4464C51.3193 92.0736 48.6811 92.0736 47.0539 90.4464C29.852 73.2446 20.8335 52.7176 20.8335 37.5002Z" fill="#3D3D3D"/>
<path fill-rule="evenodd" clip-rule="evenodd" d="M50.0002 41.6668C52.3013 41.6668 54.1668 39.8014 54.1668 37.5002C54.1668 35.199 52.3013 33.3335 50.0002 33.3335C47.699 33.3335 45.8335 35.199 45.8335 37.5002C45.8335 39.8014 47.699 41.6668 50.0002 41.6668ZM50.0002 50.0002C56.9037 50.0002 62.5002 44.4037 62.5002 37.5002C62.5002 30.5966 56.9037 25.0002 50.0002 25.0002C43.0966 25.0002 37.5002 30.5966 37.5002 37.5002C37.5002 44.4037 43.0966 50.0002 50.0002 50.0002Z" fill="#3D3D3D"/>
</svg>
