<svg width="60" height="84" viewBox="0 0 60 84" fill="none" xmlns="http://www.w3.org/2000/svg">
<path fill-rule="evenodd" clip-rule="evenodd" d="M30.0002 8.66634C18.4942 8.66634 9.16683 17.9937 9.16683 29.4997C9.16683 41.1159 15.8822 58.1135 30.0002 73.4801C44.1181 58.1135 50.8335 41.1159 50.8335 29.4997C50.8335 17.9937 41.5061 8.66634 30.0002 8.66634ZM0.833496 29.4997C0.833496 13.3914 13.8919 0.333008 30.0002 0.333008C46.1085 0.333008 59.1668 13.3914 59.1668 29.4997C59.1668 44.7172 50.1483 65.2441 32.9464 82.446C31.3193 84.0731 28.6811 84.0731 27.0539 82.446C9.85202 65.2441 0.833496 44.7172 0.833496 29.4997Z" fill="#012B5B"/>
<path fill-rule="evenodd" clip-rule="evenodd" d="M30.0002 33.6663C32.3013 33.6663 34.1668 31.8009 34.1668 29.4997C34.1668 27.1985 32.3013 25.333 30.0002 25.333C27.699 25.333 25.8335 27.1985 25.8335 29.4997C25.8335 31.8009 27.699 33.6663 30.0002 33.6663ZM30.0002 41.9997C36.9037 41.9997 42.5002 36.4032 42.5002 29.4997C42.5002 22.5961 36.9037 16.9997 30.0002 16.9997C23.0966 16.9997 17.5002 22.5961 17.5002 29.4997C17.5002 36.4032 23.0966 41.9997 30.0002 41.9997Z" fill="#012B5B"/>
</svg>
