<svg width="39" height="39" viewBox="0 0 39 39" fill="none" xmlns="http://www.w3.org/2000/svg">
<g clip-path="url(#clip0_1966_1197)">
<mask id="mask0_1966_1197" style="mask-type:luminance" maskUnits="userSpaceOnUse" x="0" y="0" width="39" height="39">
<path d="M39 0H0V39H39V0Z" fill="white"/>
</mask>
<g mask="url(#mask0_1966_1197)">
<path fill-rule="evenodd" clip-rule="evenodd" d="M3.5889 19.5823C1.62197 19.9729 0.13928 21.7084 0.13928 23.79L0.13928 34.71C0.13928 37.0793 2.05998 39 4.42929 39H15.3493C17.4798 39 19.2476 37.4468 19.5823 35.411C19.9729 37.378 21.7084 38.8608 23.79 38.8608H34.71C37.0793 38.8608 39 36.94 39 34.5708V23.6508C39 21.5202 37.4468 19.7523 35.4112 19.4177C37.378 19.027 38.8608 17.2917 38.8608 15.21V4.29C38.8608 1.9207 36.94 5.80893e-07 34.5708 4.77329e-07L23.6508 0C21.5202 -9.31291e-08 19.7523 1.5531 19.4177 3.5889C19.0271 1.62197 17.2917 0.139285 15.21 0.139285H4.29C1.9207 0.139285 0 2.05998 0 4.42929V15.3493C0 17.4798 1.5531 19.2476 3.5889 19.5823Z" fill="#012B5B"/>
</g>
</g>
<defs>
<clipPath id="clip0_1966_1197">
<rect width="39" height="39" fill="white"/>
</clipPath>
</defs>
</svg>
