<svg width="39" height="39" viewBox="0 0 39 39" fill="none" xmlns="http://www.w3.org/2000/svg">
<g clip-path="url(#clip0_2112_71)">
<mask id="mask0_2112_71" style="mask-type:luminance" maskUnits="userSpaceOnUse" x="0" y="0" width="39" height="39">
<path d="M39 0H0V39H39V0Z" fill="white"/>
</mask>
<g mask="url(#mask0_2112_71)">
<path d="M13.9537 3.18527C16.4455 -1.06176 22.5858 -1.06175 25.0775 3.18527L25.168 3.33951C26.3177 5.29879 28.4131 6.50871 30.6847 6.52462L30.8637 6.52587C35.7877 6.56035 38.8577 11.8779 36.4255 16.1594L36.3372 16.3149C35.2151 18.2901 35.2151 20.71 36.3372 22.6851L36.4255 22.8405C38.8577 27.1222 35.7877 32.4396 30.8637 32.4741L30.6847 32.4753C28.4131 32.4913 26.3177 33.7013 25.168 35.6604L25.0775 35.8147C22.5858 40.0618 16.4455 40.0618 13.9537 35.8147L13.8632 35.6604C12.7136 33.7013 10.618 32.4913 8.34641 32.4753L8.16758 32.4741C3.24363 32.4396 0.173551 27.1222 2.60565 22.8405L2.69399 22.6851C3.816 20.71 3.816 18.2901 2.69399 16.3149L2.60565 16.1594C0.173551 11.8779 3.24363 6.56035 8.16758 6.52587L8.34641 6.52462C10.618 6.50871 12.7136 5.29879 13.8632 3.33951L13.9537 3.18527Z" fill="#012B5B"/>
</g>
</g>
<defs>
<clipPath id="clip0_2112_71">
<rect width="39" height="39" fill="white"/>
</clipPath>
</defs>
</svg>
