<svg width="1920" height="1718" viewBox="0 0 1920 1718" fill="none" xmlns="http://www.w3.org/2000/svg">
<path d="M905.856 265.779C1125.11 226.454 1335.17 255.389 1497.53 333.936C1659.9 412.483 1774.53 540.621 1803.07 699.702C1831.6 858.783 1768.64 1018.77 1643.69 1148.85C1518.75 1278.93 1331.84 1379.06 1112.58 1418.39C893.325 1457.71 683.269 1428.78 520.906 1350.23C358.543 1271.68 243.905 1143.54 215.373 984.463C186.841 825.382 249.801 665.391 374.746 535.313C499.692 405.236 686.599 305.104 905.856 265.779Z" stroke="#012B5B"/>
<path d="M913.716 257.838C1145.49 216.269 1366.87 243.176 1537.43 320.257C1707.99 397.339 1827.68 524.57 1856.21 683.639C1884.74 842.707 1816.73 1003.6 1683.58 1135.16C1550.44 1266.71 1352.21 1368.88 1120.44 1410.45C888.672 1452.02 667.29 1425.11 496.729 1348.03C326.167 1270.94 206.474 1143.71 177.944 984.646C149.414 825.577 217.43 664.68 350.572 533.126C483.713 401.575 681.946 299.407 913.716 257.838Z" stroke="#012B5B"/>
<path d="M811.432 277.13C1034.74 232.938 1249.58 257.23 1416.41 332.179C1583.25 407.13 1701.99 532.692 1733.32 691.031C1764.66 849.37 1702.69 1010.7 1576.98 1143.54C1451.27 1276.38 1261.88 1380.68 1038.57 1424.87C815.269 1469.06 600.423 1444.77 433.591 1369.82C266.756 1294.87 148.015 1169.31 116.679 1010.97C85.3432 852.63 147.309 691.305 273.02 558.459C398.73 425.615 588.128 321.322 811.432 277.13Z" stroke="#012B5B" stroke-width="2"/>
<path d="M726.548 319.231C936.588 231.477 1151.97 212.521 1330.38 252.765C1508.8 293.01 1650.15 392.426 1712.38 541.36C1774.6 690.295 1745.98 860.725 1649.23 1015.93C1552.48 1171.14 1387.63 1311.04 1177.59 1398.8C967.546 1486.55 752.164 1505.51 573.752 1465.26C395.338 1425.02 253.98 1325.6 191.757 1176.67C129.533 1027.73 158.149 857.303 254.904 702.094C351.658 546.888 516.509 406.984 726.548 319.231Z" stroke="#ECECEA" stroke-width="2"/>
<path d="M981 226.5C1198.57 226.5 1395.5 294.237 1537.99 403.683C1680.49 513.128 1768.5 664.22 1768.5 831C1768.5 997.78 1680.49 1148.87 1537.99 1258.32C1395.5 1367.76 1198.57 1435.5 981 1435.5C763.426 1435.5 566.504 1367.76 424.007 1258.32C281.512 1148.87 193.5 997.78 193.5 831C193.5 664.22 281.512 513.128 424.007 403.683C566.504 294.237 763.426 226.5 981 226.5Z" stroke="#ECECEA" stroke-width="3"/>
</svg>
